<svg width="18" height="12" viewBox="0 0 18 12" fill="none" xmlns="http://www.w3.org/2000/svg">
<path d="M7.8368 6.36061L7.83528 6.00652C7.83528 4.53488 7.92146 3.19323 8.05127 2.31862L8.165 1.77474C8.22827 1.48669 8.31145 1.15871 8.39818 0.99128C8.71563 0.378833 9.33635 -9.15527e-05 10.0007 -9.15527e-05H10.0585C10.4916 0.0142283 11.4014 0.394254 11.4014 0.407472C12.8654 1.02174 15.6898 2.87563 16.9942 4.1973L17.3733 4.5941C17.4726 4.70164 17.5841 4.82892 17.6533 4.92813C17.8846 5.23435 18.0002 5.61327 18.0002 5.9922C18.0002 6.41518 17.8704 6.80843 17.625 7.13007L17.2355 7.55038L17.1483 7.64008C15.9646 8.92335 12.8741 11.0218 11.2574 11.6639L11.0133 11.7575C10.7196 11.8628 10.3081 11.9883 10.0585 11.9999C9.74107 11.9999 9.4378 11.9261 9.14872 11.7807C8.78763 11.5769 8.49963 11.2553 8.34036 10.8764C8.23891 10.6142 8.07964 9.8266 8.07964 9.81228C7.93363 9.01817 7.84896 7.76509 7.8368 6.36061ZM0.000244141 5.99947C0.000244141 5.16121 0.673327 4.48157 1.5035 4.48157L5.20273 4.80872C5.85399 4.80872 6.38199 5.34186 6.38199 5.99947C6.38199 6.65818 5.85399 7.19022 5.20273 7.19022L1.5035 7.51737C0.673327 7.51737 0.000244141 6.83773 0.000244141 5.99947Z" fill="url(#paint0_linear_293_62)"/>
<defs>
<linearGradient id="paint0_linear_293_62" x1="7.58244" y1="4.67991" x2="18.1157" y2="6.37687" gradientUnits="userSpaceOnUse">
<stop stop-color="#FF4DB5"/>
<stop offset="1" stop-color="#FFBF63"/>
</linearGradient>
</defs>
</svg>
