<svg width="24" height="24" viewBox="0 0 24 24" fill="none" xmlns="http://www.w3.org/2000/svg">
<circle cx="12" cy="12" r="12" fill="#F2F0F2"/>
<mask id="mask0_269_24" style="mask-type:alpha" maskUnits="userSpaceOnUse" x="0" y="0" width="24" height="24">
<circle cx="12" cy="12" r="12" fill="#FCFCFC"/>
</mask>
<g mask="url(#mask0_269_24)">
<rect x="3.90002" y="21.3" width="16.5" height="3" fill="#D90026"/>
<rect x="3.90002" y="21.3" width="16.5" height="3" fill="#D90026"/>
<rect x="0.299988" y="15.3" width="23.7" height="3" fill="#D90026"/>
<rect x="0.299988" y="15.3" width="23.7" height="3" fill="#D90026"/>
<rect x="0.299988" y="9" width="23.7" height="3" fill="#D90026"/>
<rect x="0.299988" y="9" width="23.7" height="3" fill="#D90026"/>
<rect x="0.299988" y="3" width="23.7" height="3" fill="#D90026"/>
<rect x="0.299988" y="3" width="23.7" height="3" fill="#D90026"/>
<rect width="12.3" height="12" fill="#0052B5"/>
<path d="M9.90001 10.0501L9.00001 10.5001L9.30001 9.6001L8.70001 9.0001H9.60001L9.90001 8.1001L10.35 9.0001H11.1L10.5 9.6001L10.8 10.5001L9.90001 10.0501Z" fill="#EFEFEF"/>
<path d="M5.7 10.0501L4.8 10.5001L5.1 9.6001L4.5 9.0001H5.4L5.7 8.1001L6.15 9.0001H6.9L6.3 9.6001L6.6 10.5001L5.7 10.0501Z" fill="#EFEFEF"/>
<path d="M1.49999 10.0501L0.599988 10.5001L0.899988 9.6001L0.299988 9.0001H1.19999L1.49999 8.1001L1.94999 9.0001H2.69999L2.09999 9.6001L2.39999 10.5001L1.49999 10.0501Z" fill="#EFEFEF"/>
<path d="M9.90001 6.75005L9.00001 7.20005L9.30001 6.30005L8.70001 5.70005H9.60001L9.90001 4.80005L10.35 5.70005H11.1L10.5 6.30005L10.8 7.20005L9.90001 6.75005Z" fill="#EFEFEF"/>
<path d="M9.90001 3.45L9.00001 3.9L9.30001 3L8.70001 2.4H9.60001L9.90001 1.5L10.35 2.4H11.1L10.5 3L10.8 3.9L9.90001 3.45Z" fill="#EFEFEF"/>
<path d="M9.90001 0.149951L9.00001 0.599951L9.30001 -0.300049L8.70001 -0.900049H9.60001L9.90001 -1.80005L10.35 -0.900049H11.1L10.5 -0.300049L10.8 0.599951L9.90001 0.149951Z" fill="#EFEFEF"/>
<path d="M5.7 3.45L4.8 3.9L5.1 3L4.5 2.4H5.4L5.7 1.5L6.15 2.4H6.9L6.3 3L6.6 3.9L5.7 3.45Z" fill="#EFEFEF"/>
<path d="M5.7 6.75005L4.8 7.20005L5.1 6.30005L4.5 5.70005H5.4L5.7 4.80005L6.15 5.70005H6.9L6.3 6.30005L6.6 7.20005L5.7 6.75005Z" fill="#EFEFEF"/>
<path d="M1.49999 6.75005L0.599988 7.20005L0.899988 6.30005L0.299988 5.70005H1.19999L1.49999 4.80005L1.94999 5.70005H2.69999L2.09999 6.30005L2.39999 7.20005L1.49999 6.75005Z" fill="#EFEFEF"/>
</g>
</svg>
