<svg width="18" height="12" viewBox="0 0 18 12" fill="none" xmlns="http://www.w3.org/2000/svg">
<path d="M10.1634 6.3607L10.165 6.00661C10.165 4.53497 10.0788 3.19332 9.94897 2.31871L9.83524 1.77483C9.77197 1.48678 9.68879 1.1588 9.60207 0.991371C9.28461 0.378924 8.66389 0 7.99954 0H7.94172C7.50864 0.0143198 6.59883 0.394346 6.59883 0.407564C5.13485 1.02183 2.31046 2.87572 1.006 4.19739L0.626928 4.59419C0.527664 4.70173 0.41614 4.82901 0.346905 4.92822C0.115635 5.23444 0 5.61337 0 5.99229C0 6.41527 0.129818 6.80852 0.375269 7.13016L0.764727 7.55047L0.85199 7.64017C2.03561 8.92344 5.12612 11.0218 6.74283 11.664L6.98692 11.7576C7.28064 11.8629 7.69218 11.9884 7.94172 12C8.25917 12 8.56244 11.9262 8.85153 11.7808C9.21262 11.577 9.50061 11.2554 9.65988 10.8764C9.76134 10.6143 9.92061 9.82669 9.92061 9.81237C10.0666 9.01826 10.1513 7.76518 10.1634 6.3607ZM18 5.99956C18 5.1613 17.3269 4.48166 16.4967 4.48166L12.7975 4.80881C12.1463 4.80881 11.6183 5.34195 11.6183 5.99956C11.6183 6.65827 12.1463 7.19031 12.7975 7.19031L16.4967 7.51746C17.3269 7.51746 18 6.83782 18 5.99956Z" fill="white"/>
</svg>
