<svg width="396" height="177" viewBox="0 0 396 177" fill="none" xmlns="http://www.w3.org/2000/svg">
<path d="M123.355 173.952L120.975 15.682L36.4854 16.396L4.35537 80.18L3.87937 131.35L68.6154 122.306L61.9514 175.856L123.355 173.952ZM32.4394 99.22L78.3734 42.1L74.0894 77.086L32.4394 99.22ZM199.917 64.77C174.163 64.77 153.149 89.576 153.149 120.386C153.149 151.038 174.163 176.002 199.917 176.002C225.829 176.002 246.843 151.038 246.843 120.386C246.843 89.576 225.829 64.77 199.917 64.77ZM201.813 147.72C192.965 147.72 185.855 133.026 185.855 115.014C185.855 97.16 192.965 82.466 201.813 82.466C210.503 82.466 217.613 97.16 217.613 115.014C217.613 133.026 210.503 147.72 201.813 147.72ZM388.067 173.952L385.687 15.682L301.197 16.396L269.067 80.18L268.591 131.35L333.327 122.306L326.663 175.856L388.067 173.952ZM297.151 99.22L343.085 42.1L338.801 77.086L297.151 99.22Z" fill="white"/>
<path d="M127.355 169.952L124.975 11.682L40.4854 12.396L8.35537 76.18L7.87937 127.35L72.6154 118.306L65.9514 171.856L127.355 169.952ZM36.4394 95.22L82.3734 38.1L78.0894 73.086L36.4394 95.22ZM203.917 60.77C178.163 60.77 157.149 85.576 157.149 116.386C157.149 147.038 178.163 172.002 203.917 172.002C229.829 172.002 250.843 147.038 250.843 116.386C250.843 85.576 229.829 60.77 203.917 60.77ZM205.813 143.72C196.965 143.72 189.855 129.026 189.855 111.014C189.855 93.16 196.965 78.466 205.813 78.466C214.503 78.466 221.613 93.16 221.613 111.014C221.613 129.026 214.503 143.72 205.813 143.72ZM392.067 169.952L389.687 11.682L305.197 12.396L273.067 76.18L272.591 127.35L337.327 118.306L330.663 171.856L392.067 169.952ZM301.151 95.22L347.085 38.1L342.801 73.086L301.151 95.22Z" fill="url(#paint0_linear_489_1505)"/>
<path d="M150.64 32L150 28.64L156.88 27.04L153.52 19.88L149.6 21.48L149.24 16.64L156.96 19.88L157.64 9.92L140.6 9.64C140.6 9.64 141.28 36.84 141.28 37.24L158.96 37.12L159.48 27.88L150.64 32ZM183.358 18.08C183.558 11.4 178.198 9.56 173.718 9.72C169.118 9.92 160.678 10 160.678 10L161.358 37.2C161.358 37 169.318 37.24 169.318 37.24L169.518 31.12L172.878 36.8L183.958 36.4L175.798 27.88C175.638 27.72 183.078 26.76 183.358 18.08ZM173.478 19.32C172.998 21.92 171.598 24.76 169.678 26.6L170.038 15.24C170.038 15.24 174.518 13.68 173.478 19.32ZM207.85 18.08C208.05 11.4 202.69 9.56 198.21 9.72C193.61 9.92 185.17 10 185.17 10L185.85 37.2C185.85 37 193.81 37.24 193.81 37.24L194.01 31.12L197.37 36.8L208.45 36.4L200.29 27.88C200.13 27.72 207.57 26.76 207.85 18.08ZM197.97 19.32C197.49 21.92 196.09 24.76 194.17 26.6L194.53 15.24C194.53 15.24 199.01 13.68 197.97 19.32ZM222.076 9.8C214.916 9.8 209.116 16 209.116 23.68C209.116 31.36 214.916 37.6 222.076 37.6C229.236 37.6 235.036 31.36 235.036 23.68C235.036 16 229.236 9.8 222.076 9.8ZM223.476 30.12C221.316 30.12 219.556 26.52 219.556 22.12C219.556 17.72 221.316 14.12 223.476 14.12C225.636 14.12 227.396 17.72 227.396 22.12C227.396 26.52 225.636 30.12 223.476 30.12ZM258.905 18.08C259.105 11.4 253.745 9.56 249.265 9.72C244.665 9.92 236.225 10 236.225 10L236.905 37.2C236.905 37 244.865 37.24 244.865 37.24L245.065 31.12L248.425 36.8L259.505 36.4L251.345 27.88C251.185 27.72 258.625 26.76 258.905 18.08ZM249.025 19.32C248.545 21.92 247.145 24.76 245.225 26.6L245.585 15.24C245.585 15.24 250.065 13.68 249.025 19.32Z" fill="white"/>
<defs>
<linearGradient id="paint0_linear_489_1505" x1="169.123" y1="80.7" x2="382.127" y2="149.684" gradientUnits="userSpaceOnUse">
<stop stop-color="#FF4DB5"/>
<stop offset="1" stop-color="#FFBF63"/>
</linearGradient>
</defs>
</svg>
