<svg width="17" height="17" viewBox="0 0 17 17" fill="none" xmlns="http://www.w3.org/2000/svg">
<path d="M8.68464 0C9.32745 0 9.90946 0.357 10.2309 0.884C10.3872 1.139 10.4915 1.4535 10.4654 1.785C10.448 2.04 10.5262 2.295 10.6652 2.533C11.1082 3.2555 12.0898 3.5275 12.8542 3.1195C13.7142 2.6265 14.8 2.924 15.2952 3.7655L15.8772 4.7685C16.381 5.61 16.103 6.6895 15.2344 7.174C14.496 7.6075 14.2354 8.568 14.6784 9.299C14.8174 9.5285 14.9738 9.724 15.217 9.843C15.521 10.0045 15.7556 10.2595 15.9206 10.5145C16.242 11.0415 16.216 11.6875 15.9032 12.257L15.2952 13.277C14.9738 13.821 14.3744 14.161 13.7576 14.161C13.4536 14.161 13.1148 14.076 12.8369 13.906C12.611 13.7615 12.3504 13.7105 12.0724 13.7105C11.2125 13.7105 10.4915 14.416 10.4654 15.2575C10.4654 16.235 9.66623 17 8.66727 17H7.48589C6.47824 17 5.67906 16.235 5.67906 15.2575C5.66169 14.416 4.9407 13.7105 4.08072 13.7105C3.79406 13.7105 3.53347 13.7615 3.3163 13.906C3.03833 14.076 2.69086 14.161 2.39552 14.161C1.77008 14.161 1.1707 13.821 0.849295 13.277L0.249917 12.257C-0.0714887 11.7045 -0.088862 11.0415 0.232544 10.5145C0.37153 10.2595 0.632129 10.0045 0.927474 9.843C1.1707 9.724 1.32706 9.5285 1.47473 9.299C1.90906 8.568 1.64847 7.6075 0.910101 7.174C0.0501242 6.6895 -0.227848 5.61 0.26729 4.7685L0.849295 3.7655C1.35312 2.924 2.43026 2.6265 3.29893 3.1195C4.05466 3.5275 5.03625 3.2555 5.47927 2.533C5.61826 2.295 5.69644 2.04 5.67906 1.785C5.66169 1.4535 5.75724 1.139 5.92229 0.884C6.2437 0.357 6.8257 0.017 7.45983 0H8.68464ZM8.08526 6.103C6.72146 6.103 5.61826 7.174 5.61826 8.5085C5.61826 9.843 6.72146 10.9055 8.08526 10.9055C9.44907 10.9055 10.5262 9.843 10.5262 8.5085C10.5262 7.174 9.44907 6.103 8.08526 6.103Z" fill="white"/>
</svg>
