<svg width="45" height="45" viewBox="0 0 45 45" fill="none" xmlns="http://www.w3.org/2000/svg">
<path d="M2.14286 0H0V2.14286H2.14286V0Z" fill="white"/>
<path d="M4.28571 0H2.14286V2.14286H4.28571V0Z" fill="white"/>
<path d="M6.42857 0H4.28571V2.14286H6.42857V0Z" fill="white"/>
<path d="M8.57143 0H6.42857V2.14286H8.57143V0Z" fill="white"/>
<path d="M10.7143 0H8.57143V2.14286H10.7143V0Z" fill="white"/>
<path d="M12.8571 0H10.7143V2.14286H12.8571V0Z" fill="white"/>
<path d="M15 0H12.8571V2.14286H15V0Z" fill="white"/>
<path d="M19.2857 0H17.1429V2.14286H19.2857V0Z" fill="white"/>
<path d="M27.8571 0H25.7143V2.14286H27.8571V0Z" fill="white"/>
<path d="M32.1429 0H30V2.14286H32.1429V0Z" fill="white"/>
<path d="M34.2857 0H32.1429V2.14286H34.2857V0Z" fill="white"/>
<path d="M36.4286 0H34.2857V2.14286H36.4286V0Z" fill="white"/>
<path d="M38.5714 0H36.4286V2.14286H38.5714V0Z" fill="white"/>
<path d="M40.7143 0H38.5714V2.14286H40.7143V0Z" fill="white"/>
<path d="M42.8571 0H40.7143V2.14286H42.8571V0Z" fill="white"/>
<path d="M45 0H42.8571V2.14286H45V0Z" fill="white"/>
<path d="M2.14286 2.14286H0V4.28571H2.14286V2.14286Z" fill="white"/>
<path d="M15 2.14286H12.8571V4.28571H15V2.14286Z" fill="white"/>
<path d="M25.7143 2.14286H23.5714V4.28571H25.7143V2.14286Z" fill="white"/>
<path d="M32.1429 2.14286H30V4.28571H32.1429V2.14286Z" fill="white"/>
<path d="M45 2.14286H42.8571V4.28571H45V2.14286Z" fill="white"/>
<path d="M2.14286 4.28571H0V6.42857H2.14286V4.28571Z" fill="white"/>
<path d="M6.42857 4.28571H4.28571V6.42857H6.42857V4.28571Z" fill="white"/>
<path d="M8.57143 4.28571H6.42857V6.42857H8.57143V4.28571Z" fill="white"/>
<path d="M10.7143 4.28571H8.57143V6.42857H10.7143V4.28571Z" fill="white"/>
<path d="M15 4.28571H12.8571V6.42857H15V4.28571Z" fill="white"/>
<path d="M19.2857 4.28571H17.1429V6.42857H19.2857V4.28571Z" fill="white"/>
<path d="M21.4286 4.28571H19.2857V6.42857H21.4286V4.28571Z" fill="white"/>
<path d="M25.7143 4.28571H23.5714V6.42857H25.7143V4.28571Z" fill="white"/>
<path d="M32.1429 4.28571H30V6.42857H32.1429V4.28571Z" fill="white"/>
<path d="M36.4286 4.28571H34.2857V6.42857H36.4286V4.28571Z" fill="white"/>
<path d="M38.5714 4.28571H36.4286V6.42857H38.5714V4.28571Z" fill="white"/>
<path d="M40.7143 4.28571H38.5714V6.42857H40.7143V4.28571Z" fill="white"/>
<path d="M45 4.28571H42.8571V6.42857H45V4.28571Z" fill="white"/>
<path d="M2.14286 6.42857H0V8.57143H2.14286V6.42857Z" fill="white"/>
<path d="M6.42857 6.42857H4.28571V8.57143H6.42857V6.42857Z" fill="white"/>
<path d="M8.57143 6.42857H6.42857V8.57143H8.57143V6.42857Z" fill="white"/>
<path d="M10.7143 6.42857H8.57143V8.57143H10.7143V6.42857Z" fill="white"/>
<path d="M15 6.42857H12.8571V8.57143H15V6.42857Z" fill="white"/>
<path d="M19.2857 6.42857H17.1429V8.57143H19.2857V6.42857Z" fill="white"/>
<path d="M21.4286 6.42857H19.2857V8.57143H21.4286V6.42857Z" fill="white"/>
<path d="M32.1429 6.42857H30V8.57143H32.1429V6.42857Z" fill="white"/>
<path d="M36.4286 6.42857H34.2857V8.57143H36.4286V6.42857Z" fill="white"/>
<path d="M38.5714 6.42857H36.4286V8.57143H38.5714V6.42857Z" fill="white"/>
<path d="M40.7143 6.42857H38.5714V8.57143H40.7143V6.42857Z" fill="white"/>
<path d="M45 6.42857H42.8571V8.57143H45V6.42857Z" fill="white"/>
<path d="M2.14286 8.57143H0V10.7143H2.14286V8.57143Z" fill="white"/>
<path d="M6.42857 8.57143H4.28571V10.7143H6.42857V8.57143Z" fill="white"/>
<path d="M8.57143 8.57143H6.42857V10.7143H8.57143V8.57143Z" fill="white"/>
<path d="M10.7143 8.57143H8.57143V10.7143H10.7143V8.57143Z" fill="white"/>
<path d="M15 8.57143H12.8571V10.7143H15V8.57143Z" fill="white"/>
<path d="M19.2857 8.57143H17.1429V10.7143H19.2857V8.57143Z" fill="white"/>
<path d="M27.8571 8.57143H25.7143V10.7143H27.8571V8.57143Z" fill="white"/>
<path d="M32.1429 8.57143H30V10.7143H32.1429V8.57143Z" fill="white"/>
<path d="M36.4286 8.57143H34.2857V10.7143H36.4286V8.57143Z" fill="white"/>
<path d="M38.5714 8.57143H36.4286V10.7143H38.5714V8.57143Z" fill="white"/>
<path d="M40.7143 8.57143H38.5714V10.7143H40.7143V8.57143Z" fill="white"/>
<path d="M45 8.57143H42.8571V10.7143H45V8.57143Z" fill="white"/>
<path d="M2.14286 10.7143H0V12.8571H2.14286V10.7143Z" fill="white"/>
<path d="M15 10.7143H12.8571V12.8571H15V10.7143Z" fill="white"/>
<path d="M19.2857 10.7143H17.1429V12.8571H19.2857V10.7143Z" fill="white"/>
<path d="M23.5714 10.7143H21.4286V12.8571H23.5714V10.7143Z" fill="white"/>
<path d="M27.8571 10.7143H25.7143V12.8571H27.8571V10.7143Z" fill="white"/>
<path d="M32.1429 10.7143H30V12.8571H32.1429V10.7143Z" fill="white"/>
<path d="M45 10.7143H42.8571V12.8571H45V10.7143Z" fill="white"/>
<path d="M2.14286 12.8571H0V15H2.14286V12.8571Z" fill="white"/>
<path d="M4.28571 12.8571H2.14286V15H4.28571V12.8571Z" fill="white"/>
<path d="M6.42857 12.8571H4.28571V15H6.42857V12.8571Z" fill="white"/>
<path d="M8.57143 12.8571H6.42857V15H8.57143V12.8571Z" fill="white"/>
<path d="M10.7143 12.8571H8.57143V15H10.7143V12.8571Z" fill="white"/>
<path d="M12.8571 12.8571H10.7143V15H12.8571V12.8571Z" fill="white"/>
<path d="M15 12.8571H12.8571V15H15V12.8571Z" fill="white"/>
<path d="M19.2857 12.8571H17.1429V15H19.2857V12.8571Z" fill="white"/>
<path d="M23.5714 12.8571H21.4286V15H23.5714V12.8571Z" fill="white"/>
<path d="M27.8571 12.8571H25.7143V15H27.8571V12.8571Z" fill="white"/>
<path d="M32.1429 12.8571H30V15H32.1429V12.8571Z" fill="white"/>
<path d="M34.2857 12.8571H32.1429V15H34.2857V12.8571Z" fill="white"/>
<path d="M36.4286 12.8571H34.2857V15H36.4286V12.8571Z" fill="white"/>
<path d="M38.5714 12.8571H36.4286V15H38.5714V12.8571Z" fill="white"/>
<path d="M40.7143 12.8571H38.5714V15H40.7143V12.8571Z" fill="white"/>
<path d="M42.8571 12.8571H40.7143V15H42.8571V12.8571Z" fill="white"/>
<path d="M45 12.8571H42.8571V15H45V12.8571Z" fill="white"/>
<path d="M21.4286 15H19.2857L19.2857 17.1429H21.4286V15Z" fill="white"/>
<path d="M25.7143 15H23.5714V17.1429H25.7143V15Z" fill="white"/>
<path d="M27.8571 15H25.7143V17.1429H27.8571V15Z" fill="white"/>
<path d="M6.42857 17.1429H4.28571V19.2857H6.42857V17.1429Z" fill="white"/>
<path d="M8.57143 17.1429H6.42857V19.2857H8.57143V17.1429Z" fill="white"/>
<path d="M10.7143 17.1429H8.57143V19.2857H10.7143V17.1429Z" fill="white"/>
<path d="M12.8571 17.1429H10.7143V19.2857H12.8571V17.1429Z" fill="white"/>
<path d="M15 17.1429H12.8571V19.2857H15V17.1429Z" fill="white"/>
<path d="M17.1429 17.1429H15V19.2857H17.1429V17.1429Z" fill="white"/>
<path d="M23.5714 17.1429H21.4286V19.2857H23.5714V17.1429Z" fill="white"/>
<path d="M25.7143 17.1429H23.5714V19.2857H25.7143V17.1429Z" fill="white"/>
<path d="M27.8571 17.1429H25.7143V19.2857H27.8571V17.1429Z" fill="white"/>
<path d="M30 17.1429L27.8571 17.1429V19.2857H30V17.1429Z" fill="white"/>
<path d="M34.2857 17.1429H32.1429V19.2857H34.2857V17.1429Z" fill="white"/>
<path d="M36.4286 17.1429H34.2857V19.2857H36.4286V17.1429Z" fill="white"/>
<path d="M38.5714 17.1429H36.4286V19.2857H38.5714V17.1429Z" fill="white"/>
<path d="M40.7143 17.1429H38.5714V19.2857H40.7143V17.1429Z" fill="white"/>
<path d="M45 17.1429H42.8571V19.2857H45V17.1429Z" fill="white"/>
<path d="M17.1429 19.2857H15V21.4286H17.1429V19.2857Z" fill="white"/>
<path d="M21.4286 19.2857L19.2857 19.2857V21.4286H21.4286V19.2857Z" fill="white"/>
<path d="M25.7143 19.2857H23.5714V21.4286H25.7143V19.2857Z" fill="white"/>
<path d="M30 19.2857H27.8571V21.4286H30V19.2857Z" fill="white"/>
<path d="M32.1429 19.2857H30V21.4286H32.1429V19.2857Z" fill="white"/>
<path d="M34.2857 19.2857H32.1429V21.4286H34.2857V19.2857Z" fill="white"/>
<path d="M36.4286 19.2857H34.2857V21.4286H36.4286V19.2857Z" fill="white"/>
<path d="M38.5714 19.2857H36.4286V21.4286H38.5714V19.2857Z" fill="white"/>
<path d="M40.7143 19.2857H38.5714V21.4286H40.7143V19.2857Z" fill="white"/>
<path d="M42.8571 19.2857H40.7143V21.4286H42.8571V19.2857Z" fill="white"/>
<path d="M4.28571 21.4286H2.14286V23.5714H4.28571V21.4286Z" fill="white"/>
<path d="M12.8571 21.4286H10.7143V23.5714H12.8571V21.4286Z" fill="white"/>
<path d="M15 21.4286H12.8571V23.5714H15V21.4286Z" fill="white"/>
<path d="M21.4286 21.4286H19.2857V23.5714H21.4286V21.4286Z" fill="white"/>
<path d="M23.5714 21.4286H21.4286V23.5714H23.5714V21.4286Z" fill="white"/>
<path d="M25.7143 21.4286H23.5714V23.5714H25.7143V21.4286Z" fill="white"/>
<path d="M36.4286 21.4286H34.2857V23.5714H36.4286V21.4286Z" fill="white"/>
<path d="M38.5714 21.4286H36.4286V23.5714H38.5714V21.4286Z" fill="white"/>
<path d="M45 21.4286H42.8571V23.5714H45V21.4286Z" fill="white"/>
<path d="M8.57143 23.5714H6.42857V25.7143H8.57143V23.5714Z" fill="white"/>
<path d="M10.7143 23.5714H8.57143V25.7143H10.7143V23.5714Z" fill="white"/>
<path d="M17.1429 23.5714H15V25.7143H17.1429V23.5714Z" fill="white"/>
<path d="M23.5714 23.5714H21.4286V25.7143H23.5714V23.5714Z" fill="white"/>
<path d="M27.8571 23.5714H25.7143V25.7143H27.8571V23.5714Z" fill="white"/>
<path d="M30 23.5714H27.8571V25.7143H30V23.5714Z" fill="white"/>
<path d="M34.2857 23.5714H32.1429V25.7143H34.2857V23.5714Z" fill="white"/>
<path d="M40.7143 23.5714H38.5714V25.7143H40.7143V23.5714Z" fill="white"/>
<path d="M45 23.5714H42.8571V25.7143H45V23.5714Z" fill="white"/>
<path d="M4.28571 25.7143H2.14286V27.8571H4.28571V25.7143Z" fill="white"/>
<path d="M10.7143 25.7143H8.57143V27.8571H10.7143V25.7143Z" fill="white"/>
<path d="M12.8571 25.7143H10.7143V27.8571H12.8571V25.7143Z" fill="white"/>
<path d="M15 25.7143H12.8571V27.8571H15V25.7143Z" fill="white"/>
<path d="M17.1429 25.7143H15V27.8571H17.1429V25.7143Z" fill="white"/>
<path d="M19.2857 25.7143H17.1429V27.8571H19.2857V25.7143Z" fill="white"/>
<path d="M21.4286 25.7143H19.2857V27.8571H21.4286V25.7143Z" fill="white"/>
<path d="M30 25.7143H27.8571V27.8571H30V25.7143Z" fill="white"/>
<path d="M32.1429 25.7143H30V27.8571H32.1429V25.7143Z" fill="white"/>
<path d="M34.2857 25.7143H32.1429V27.8571H34.2857V25.7143Z" fill="white"/>
<path d="M36.4286 25.7143H34.2857V27.8571H36.4286V25.7143Z" fill="white"/>
<path d="M38.5714 25.7143H36.4286V27.8571H38.5714V25.7143Z" fill="white"/>
<path d="M23.5714 27.8571H21.4286V30H23.5714V27.8571Z" fill="white"/>
<path d="M25.7143 27.8571H23.5714V30H25.7143V27.8571Z" fill="white"/>
<path d="M30 27.8571H27.8571V30H30V27.8571Z" fill="white"/>
<path d="M34.2857 27.8571H32.1429V30H34.2857V27.8571Z" fill="white"/>
<path d="M38.5714 27.8571H36.4286V30H38.5714V27.8571Z" fill="white"/>
<path d="M2.14286 30H0V32.1429H2.14286V30Z" fill="white"/>
<path d="M4.28571 30H2.14286V32.1429H4.28571V30Z" fill="white"/>
<path d="M6.42857 30H4.28571V32.1429H6.42857V30Z" fill="white"/>
<path d="M8.57143 30H6.42857V32.1429H8.57143V30Z" fill="white"/>
<path d="M10.7143 30H8.57143V32.1429H10.7143V30Z" fill="white"/>
<path d="M12.8571 30H10.7143V32.1429H12.8571V30Z" fill="white"/>
<path d="M15 30H12.8571V32.1429H15V30Z" fill="white"/>
<path d="M19.2857 30H17.1429V32.1429H19.2857V30Z" fill="white"/>
<path d="M23.5714 30H21.4286V32.1429H23.5714V30Z" fill="white"/>
<path d="M27.8571 30H25.7143V32.1429H27.8571V30Z" fill="white"/>
<path d="M36.4286 30H34.2857V32.1429H36.4286V30Z" fill="white"/>
<path d="M40.7143 30H38.5714V32.1429H40.7143V30Z" fill="white"/>
<path d="M2.14286 32.1429H0V34.2857H2.14286V32.1429Z" fill="white"/>
<path d="M15 32.1429H12.8571V34.2857H15V32.1429Z" fill="white"/>
<path d="M19.2857 32.1429H17.1429V34.2857H19.2857V32.1429Z" fill="white"/>
<path d="M25.7143 32.1429H23.5714V34.2857H25.7143V32.1429Z" fill="white"/>
<path d="M30 32.1429H27.8571V34.2857H30V32.1429Z" fill="white"/>
<path d="M34.2857 32.1429H32.1429V34.2857H34.2857V32.1429Z" fill="white"/>
<path d="M38.5714 32.1429H36.4286V34.2857H38.5714V32.1429Z" fill="white"/>
<path d="M45 32.1429H42.8571V34.2857H45V32.1429Z" fill="white"/>
<path d="M2.14286 34.2857H0V36.4286H2.14286V34.2857Z" fill="white"/>
<path d="M6.42857 34.2857H4.28571V36.4286H6.42857V34.2857Z" fill="white"/>
<path d="M8.57143 34.2857H6.42857V36.4286H8.57143V34.2857Z" fill="white"/>
<path d="M10.7143 34.2857H8.57143V36.4286H10.7143V34.2857Z" fill="white"/>
<path d="M15 34.2857H12.8571V36.4286H15V34.2857Z" fill="white"/>
<path d="M19.2857 34.2857H17.1429V36.4286H19.2857V34.2857Z" fill="white"/>
<path d="M21.4286 34.2857H19.2857V36.4286H21.4286V34.2857Z" fill="white"/>
<path d="M25.7143 34.2857H23.5714V36.4286H25.7143V34.2857Z" fill="white"/>
<path d="M30 34.2857H27.8571V36.4286H30V34.2857Z" fill="white"/>
<path d="M38.5714 34.2857H36.4286V36.4286H38.5714V34.2857Z" fill="white"/>
<path d="M42.8571 34.2857H40.7143V36.4286H42.8571V34.2857Z" fill="white"/>
<path d="M2.14286 36.4286H0V38.5714H2.14286V36.4286Z" fill="white"/>
<path d="M6.42857 36.4286H4.28571V38.5714H6.42857V36.4286Z" fill="white"/>
<path d="M8.57143 36.4286H6.42857V38.5714H8.57143V36.4286Z" fill="white"/>
<path d="M10.7143 36.4286H8.57143V38.5714H10.7143V36.4286Z" fill="white"/>
<path d="M15 36.4286H12.8571V38.5714H15V36.4286Z" fill="white"/>
<path d="M19.2857 36.4286H17.1429V38.5714H19.2857V36.4286Z" fill="white"/>
<path d="M21.4286 36.4286H19.2857V38.5714H21.4286V36.4286Z" fill="white"/>
<path d="M25.7143 36.4286H23.5714V38.5714H25.7143V36.4286Z" fill="white"/>
<path d="M30 36.4286H27.8571V38.5714H30V36.4286Z" fill="white"/>
<path d="M34.2857 36.4286H32.1429V38.5714H34.2857V36.4286Z" fill="white"/>
<path d="M40.7143 36.4286H38.5714V38.5714H40.7143V36.4286Z" fill="white"/>
<path d="M42.8571 36.4286H40.7143V38.5714H42.8571V36.4286Z" fill="white"/>
<path d="M45 36.4286H42.8571V38.5714H45V36.4286Z" fill="white"/>
<path d="M2.14286 38.5714H0V40.7143H2.14286V38.5714Z" fill="white"/>
<path d="M6.42857 38.5714H4.28571V40.7143H6.42857V38.5714Z" fill="white"/>
<path d="M8.57143 38.5714H6.42857V40.7143H8.57143V38.5714Z" fill="white"/>
<path d="M10.7143 38.5714H8.57143V40.7143H10.7143V38.5714Z" fill="white"/>
<path d="M15 38.5714H12.8571V40.7143H15V38.5714Z" fill="white"/>
<path d="M19.2857 38.5714H17.1429V40.7143H19.2857V38.5714Z" fill="white"/>
<path d="M21.4286 38.5714H19.2857V40.7143H21.4286V38.5714Z" fill="white"/>
<path d="M23.5714 38.5714H21.4286V40.7143H23.5714V38.5714Z" fill="white"/>
<path d="M25.7143 38.5714H23.5714V40.7143H25.7143V38.5714Z" fill="white"/>
<path d="M30 38.5714H27.8571V40.7143H30V38.5714Z" fill="white"/>
<path d="M34.2857 38.5714H32.1429V40.7143H34.2857V38.5714Z" fill="white"/>
<path d="M38.5714 38.5714H36.4286V40.7143H38.5714V38.5714Z" fill="white"/>
<path d="M40.7143 38.5714H38.5714V40.7143H40.7143V38.5714Z" fill="white"/>
<path d="M42.8571 38.5714H40.7143V40.7143H42.8571V38.5714Z" fill="white"/>
<path d="M2.14286 40.7143H0V42.8571H2.14286V40.7143Z" fill="white"/>
<path d="M15 40.7143H12.8571V42.8571H15V40.7143Z" fill="white"/>
<path d="M23.5714 40.7143H21.4286V42.8571H23.5714V40.7143Z" fill="white"/>
<path d="M25.7143 40.7143H23.5714V42.8571H25.7143V40.7143Z" fill="white"/>
<path d="M30 40.7143H27.8571V42.8571H30V40.7143Z" fill="white"/>
<path d="M32.1429 40.7143H30V42.8571H32.1429V40.7143Z" fill="white"/>
<path d="M45 40.7143H42.8571V42.8571H45V40.7143Z" fill="white"/>
<path d="M2.14286 42.8571H0V45H2.14286V42.8571Z" fill="white"/>
<path d="M4.28571 42.8571H2.14286V45H4.28571V42.8571Z" fill="white"/>
<path d="M6.42857 42.8571H4.28571V45H6.42857V42.8571Z" fill="white"/>
<path d="M8.57143 42.8571H6.42857V45H8.57143V42.8571Z" fill="white"/>
<path d="M10.7143 42.8571H8.57143V45H10.7143V42.8571Z" fill="white"/>
<path d="M12.8571 42.8571H10.7143V45H12.8571V42.8571Z" fill="white"/>
<path d="M15 42.8571H12.8571V45H15V42.8571Z" fill="white"/>
<path d="M21.4286 42.8571H19.2857V45H21.4286V42.8571Z" fill="white"/>
<path d="M25.7143 42.8571H23.5714V45H25.7143V42.8571Z" fill="white"/>
<path d="M30 42.8571H27.8571V45H30V42.8571Z" fill="white"/>
<path d="M34.2857 42.8571H32.1429V45H34.2857V42.8571Z" fill="white"/>
<path d="M36.4286 42.8571H34.2857V45H36.4286V42.8571Z" fill="white"/>
</svg>
