<svg width="224" height="269" viewBox="0 0 224 269" fill="none" xmlns="http://www.w3.org/2000/svg">
<g filter="url(#filter0_d_453_9396)">
<path d="M16.695 15.647H187.212L209 36.3655V253.121H57.8622L29.8823 226.513V176.031L15.4336 162.254L16.695 15.647Z" fill="url(#paint0_linear_453_9396)"/>
</g>
<path d="M65.3135 245.864L55.5664 236.294H193.173V54.5598L200.627 62.7631V245.864H65.3135Z" fill="url(#paint1_linear_453_9396)"/>
<g style="mix-blend-mode:hard-light" filter="url(#filter1_f_453_9396)">
<path d="M26.6875 169.903V223.856L51.342 246.362" stroke="url(#paint2_linear_453_9396)" stroke-width="1.3" stroke-miterlimit="10"/>
</g>
<g style="mix-blend-mode:hard-light" filter="url(#filter2_f_453_9396)">
<path d="M26.6875 169.903V223.856L51.342 246.362" stroke="url(#paint3_linear_453_9396)" stroke-width="1.7" stroke-miterlimit="10"/>
</g>
<g style="mix-blend-mode:hard-light" filter="url(#filter3_ddi_453_9396)">
<path d="M26.6875 169.903V223.856L51.342 246.362" stroke="url(#paint4_linear_453_9396)" stroke-width="1.3" stroke-miterlimit="10"/>
</g>
<g filter="url(#filter4_f_453_9396)">
<path d="M26.6875 169.903V223.856L51.342 246.362" stroke="url(#paint5_linear_453_9396)" stroke-width="0.8" stroke-miterlimit="10"/>
</g>
<g filter="url(#filter5_f_453_9396)">
<path d="M26.6875 169.903V223.856L51.342 246.362" stroke="white" stroke-width="0.4" stroke-miterlimit="10"/>
</g>
<g style="mix-blend-mode:hard-light" filter="url(#filter6_f_453_9396)">
<path d="M26.3164 49.3193V157.224L39.5037 170.58V224.427" stroke="url(#paint6_linear_453_9396)" stroke-width="0.65" stroke-miterlimit="10"/>
</g>
<g style="mix-blend-mode:hard-light" filter="url(#filter7_f_453_9396)">
<path d="M26.3164 49.3193V157.224L39.5037 170.58V224.427" stroke="url(#paint7_linear_453_9396)" stroke-width="0.85" stroke-miterlimit="10"/>
</g>
<g style="mix-blend-mode:hard-light" filter="url(#filter8_ddi_453_9396)">
<path d="M26.3164 49.3193V157.224L39.5037 170.58V224.427" stroke="url(#paint8_linear_453_9396)" stroke-width="0.65" stroke-miterlimit="10"/>
</g>
<g filter="url(#filter9_f_453_9396)">
<path d="M26.3164 49.3193V157.224L39.5037 170.58V224.427" stroke="url(#paint9_linear_453_9396)" stroke-width="0.4" stroke-miterlimit="10"/>
</g>
<g filter="url(#filter10_f_453_9396)">
<path d="M26.3164 49.3193V157.224L39.5037 170.58V224.427" stroke="white" stroke-width="0.2" stroke-miterlimit="10"/>
</g>
<path d="M198.047 39.2666L179.05 25.2224H94.3242" stroke="url(#paint10_linear_453_9396)" stroke-miterlimit="10"/>
<g style="mix-blend-mode:hard-light" filter="url(#filter11_f_453_9396)">
<path d="M129.125 222.44C131.075 222.44 132.68 223.913 132.68 225.7C132.68 227.488 131.075 228.961 129.125 228.961C127.176 228.961 125.57 227.488 125.57 225.7C125.57 223.913 127.176 222.44 129.125 222.44ZM142.083 225.7C142.083 227.488 143.688 228.961 145.638 228.961C147.587 228.961 149.193 227.488 149.193 225.7C149.193 223.913 147.702 222.44 145.638 222.44C143.574 222.44 142.083 223.913 142.083 225.7ZM158.596 225.7C158.596 227.488 160.201 228.961 162.151 228.961C164.1 228.961 165.706 227.488 165.706 225.7C165.706 223.913 164.215 222.44 162.265 222.44C160.201 222.44 158.596 223.913 158.596 225.7ZM175.223 225.7C175.223 227.488 176.829 228.961 178.778 228.961C180.728 228.961 182.333 227.488 182.333 225.7C182.333 223.913 180.728 222.44 178.778 222.44C176.829 222.44 175.223 223.913 175.223 225.7Z" fill="url(#paint11_linear_453_9396)"/>
<path d="M129.125 222.898C130.86 222.898 132.222 224.202 132.222 225.7C132.222 227.199 130.86 228.503 129.125 228.503C127.391 228.503 126.028 227.199 126.028 225.7C126.028 224.202 127.391 222.898 129.125 222.898ZM145.638 228.503C143.903 228.503 142.541 227.199 142.541 225.7C142.541 224.193 143.799 222.898 145.638 222.898C147.477 222.898 148.735 224.193 148.735 225.7C148.735 227.199 147.373 228.503 145.638 228.503ZM162.151 228.503C160.416 228.503 159.054 227.199 159.054 225.7C159.054 224.211 160.406 222.898 162.265 222.898C163.98 222.898 165.248 224.183 165.248 225.7C165.248 227.199 163.885 228.503 162.151 228.503ZM178.778 228.503C177.044 228.503 175.681 227.199 175.681 225.7C175.681 224.202 177.044 222.898 178.778 222.898C180.513 222.898 181.875 224.202 181.875 225.7C181.875 227.199 180.513 228.503 178.778 228.503Z" stroke="url(#paint12_linear_453_9396)" stroke-width="0.915945"/>
</g>
<g style="mix-blend-mode:hard-light" filter="url(#filter12_f_453_9396)">
<path d="M129.125 222.44C131.075 222.44 132.68 223.913 132.68 225.7C132.68 227.488 131.075 228.961 129.125 228.961C127.176 228.961 125.57 227.488 125.57 225.7C125.57 223.913 127.176 222.44 129.125 222.44ZM142.083 225.7C142.083 227.488 143.688 228.961 145.638 228.961C147.587 228.961 149.193 227.488 149.193 225.7C149.193 223.913 147.702 222.44 145.638 222.44C143.574 222.44 142.083 223.913 142.083 225.7ZM158.596 225.7C158.596 227.488 160.201 228.961 162.151 228.961C164.1 228.961 165.706 227.488 165.706 225.7C165.706 223.913 164.215 222.44 162.265 222.44C160.201 222.44 158.596 223.913 158.596 225.7ZM175.223 225.7C175.223 227.488 176.829 228.961 178.778 228.961C180.728 228.961 182.333 227.488 182.333 225.7C182.333 223.913 180.728 222.44 178.778 222.44C176.829 222.44 175.223 223.913 175.223 225.7Z" fill="url(#paint13_linear_453_9396)"/>
<path d="M129.125 223.039C130.794 223.039 132.081 224.291 132.081 225.7C132.081 227.11 130.794 228.362 129.125 228.362C127.457 228.362 126.169 227.11 126.169 225.7C126.169 224.291 127.457 223.039 129.125 223.039ZM145.638 228.362C143.969 228.362 142.682 227.11 142.682 225.7C142.682 224.279 143.868 223.039 145.638 223.039C147.408 223.039 148.594 224.279 148.594 225.7C148.594 227.11 147.306 228.362 145.638 228.362ZM162.151 228.362C160.482 228.362 159.195 227.11 159.195 225.7C159.195 224.303 160.469 223.039 162.265 223.039C163.907 223.039 165.107 224.266 165.107 225.7C165.107 227.11 163.819 228.362 162.151 228.362ZM178.778 228.362C177.11 228.362 175.822 227.11 175.822 225.7C175.822 224.291 177.11 223.039 178.778 223.039C180.447 223.039 181.734 224.291 181.734 225.7C181.734 227.11 180.447 228.362 178.778 228.362Z" stroke="url(#paint14_linear_453_9396)" stroke-width="1.19777"/>
</g>
<g style="mix-blend-mode:hard-light" filter="url(#filter13_ddi_453_9396)">
<path d="M129.125 222.44C131.075 222.44 132.68 223.913 132.68 225.7C132.68 227.488 131.075 228.961 129.125 228.961C127.176 228.961 125.57 227.488 125.57 225.7C125.57 223.913 127.176 222.44 129.125 222.44ZM142.083 225.7C142.083 227.488 143.688 228.961 145.638 228.961C147.587 228.961 149.193 227.488 149.193 225.7C149.193 223.913 147.702 222.44 145.638 222.44C143.574 222.44 142.083 223.913 142.083 225.7ZM158.596 225.7C158.596 227.488 160.201 228.961 162.151 228.961C164.1 228.961 165.706 227.488 165.706 225.7C165.706 223.913 164.215 222.44 162.265 222.44C160.201 222.44 158.596 223.913 158.596 225.7ZM175.223 225.7C175.223 227.488 176.829 228.961 178.778 228.961C180.728 228.961 182.333 227.488 182.333 225.7C182.333 223.913 180.728 222.44 178.778 222.44C176.829 222.44 175.223 223.913 175.223 225.7Z" fill="url(#paint15_linear_453_9396)"/>
<path d="M129.125 222.898C130.86 222.898 132.222 224.202 132.222 225.7C132.222 227.199 130.86 228.503 129.125 228.503C127.391 228.503 126.028 227.199 126.028 225.7C126.028 224.202 127.391 222.898 129.125 222.898ZM145.638 228.503C143.903 228.503 142.541 227.199 142.541 225.7C142.541 224.193 143.799 222.898 145.638 222.898C147.477 222.898 148.735 224.193 148.735 225.7C148.735 227.199 147.373 228.503 145.638 228.503ZM162.151 228.503C160.416 228.503 159.054 227.199 159.054 225.7C159.054 224.211 160.406 222.898 162.265 222.898C163.98 222.898 165.248 224.183 165.248 225.7C165.248 227.199 163.885 228.503 162.151 228.503ZM178.778 228.503C177.044 228.503 175.681 227.199 175.681 225.7C175.681 224.202 177.044 222.898 178.778 222.898C180.513 222.898 181.875 224.202 181.875 225.7C181.875 227.199 180.513 228.503 178.778 228.503Z" stroke="url(#paint16_linear_453_9396)" stroke-width="0.915945"/>
</g>
<g filter="url(#filter14_f_453_9396)">
<path d="M129.125 222.44C131.075 222.44 132.68 223.913 132.68 225.7C132.68 227.488 131.075 228.961 129.125 228.961C127.176 228.961 125.57 227.488 125.57 225.7C125.57 223.913 127.176 222.44 129.125 222.44ZM142.083 225.7C142.083 227.488 143.688 228.961 145.638 228.961C147.587 228.961 149.193 227.488 149.193 225.7C149.193 223.913 147.702 222.44 145.638 222.44C143.574 222.44 142.083 223.913 142.083 225.7ZM158.596 225.7C158.596 227.488 160.201 228.961 162.151 228.961C164.1 228.961 165.706 227.488 165.706 225.7C165.706 223.913 164.215 222.44 162.265 222.44C160.201 222.44 158.596 223.913 158.596 225.7ZM175.223 225.7C175.223 227.488 176.829 228.961 178.778 228.961C180.728 228.961 182.333 227.488 182.333 225.7C182.333 223.913 180.728 222.44 178.778 222.44C176.829 222.44 175.223 223.913 175.223 225.7Z" fill="url(#paint17_linear_453_9396)"/>
<path d="M129.125 222.722C130.942 222.722 132.398 224.091 132.398 225.7C132.398 227.31 130.942 228.679 129.125 228.679C127.308 228.679 125.852 227.31 125.852 225.7C125.852 224.091 127.308 222.722 129.125 222.722ZM145.638 228.679C143.821 228.679 142.365 227.31 142.365 225.7C142.365 224.085 143.712 222.722 145.638 222.722C147.564 222.722 148.911 224.085 148.911 225.7C148.911 227.31 147.455 228.679 145.638 228.679ZM162.151 228.679C160.333 228.679 158.878 227.31 158.878 225.7C158.878 224.096 160.327 222.722 162.265 222.722C164.07 222.722 165.424 224.079 165.424 225.7C165.424 227.31 163.968 228.679 162.151 228.679ZM178.778 228.679C176.961 228.679 175.505 227.31 175.505 225.7C175.505 224.091 176.961 222.722 178.778 222.722C180.595 222.722 182.051 224.091 182.051 225.7C182.051 227.31 180.595 228.679 178.778 228.679Z" stroke="url(#paint18_linear_453_9396)" stroke-width="0.563658"/>
</g>
<g filter="url(#filter15_f_453_9396)">
<path d="M129.125 222.44C131.075 222.44 132.68 223.913 132.68 225.7C132.68 227.488 131.075 228.961 129.125 228.961C127.176 228.961 125.57 227.488 125.57 225.7C125.57 223.913 127.176 222.44 129.125 222.44ZM142.083 225.7C142.083 227.488 143.688 228.961 145.638 228.961C147.587 228.961 149.193 227.488 149.193 225.7C149.193 223.913 147.702 222.44 145.638 222.44C143.574 222.44 142.083 223.913 142.083 225.7ZM158.596 225.7C158.596 227.488 160.201 228.961 162.151 228.961C164.1 228.961 165.706 227.488 165.706 225.7C165.706 223.913 164.215 222.44 162.265 222.44C160.201 222.44 158.596 223.913 158.596 225.7ZM175.223 225.7C175.223 227.488 176.829 228.961 178.778 228.961C180.728 228.961 182.333 227.488 182.333 225.7C182.333 223.913 180.728 222.44 178.778 222.44C176.829 222.44 175.223 223.913 175.223 225.7Z" fill="url(#paint19_linear_453_9396)"/>
<path d="M129.125 222.581C131.008 222.581 132.539 224.002 132.539 225.7C132.539 227.399 131.008 228.82 129.125 228.82C127.242 228.82 125.711 227.399 125.711 225.7C125.711 224.002 127.242 222.581 129.125 222.581ZM145.638 228.82C143.755 228.82 142.224 227.399 142.224 225.7C142.224 223.999 143.643 222.581 145.638 222.581C147.633 222.581 149.052 223.999 149.052 225.7C149.052 227.399 147.521 228.82 145.638 228.82ZM162.151 228.82C160.267 228.82 158.737 227.399 158.737 225.7C158.737 224.004 160.264 222.581 162.265 222.581C164.142 222.581 165.565 223.996 165.565 225.7C165.565 227.399 164.034 228.82 162.151 228.82ZM178.778 228.82C176.895 228.82 175.364 227.399 175.364 225.7C175.364 224.002 176.895 222.581 178.778 222.581C180.661 222.581 182.192 224.002 182.192 225.7C182.192 227.399 180.661 228.82 178.778 228.82Z" stroke="white" stroke-width="0.281829"/>
</g>
<g style="mix-blend-mode:hard-light" filter="url(#filter16_f_453_9396)">
<path d="M198.043 39.2668L179.046 25.2227H94.3203" stroke="#FEB868" stroke-width="0.65" stroke-miterlimit="10"/>
</g>
<g style="mix-blend-mode:hard-light" filter="url(#filter17_f_453_9396)">
<path d="M198.043 39.2668L179.046 25.2227H94.3203" stroke="url(#paint20_linear_453_9396)" stroke-width="0.85" stroke-miterlimit="10"/>
</g>
<g style="mix-blend-mode:hard-light" filter="url(#filter18_ddi_453_9396)">
<path d="M198.043 39.2668L179.046 25.2227H94.3203" stroke="#FE4CB5" stroke-width="0.65" stroke-miterlimit="10"/>
</g>
<g filter="url(#filter19_f_453_9396)">
<path d="M198.043 39.2668L179.046 25.2227H94.3203" stroke="#FF9983" stroke-width="0.4" stroke-miterlimit="10"/>
</g>
<g filter="url(#filter20_f_453_9396)">
<path d="M198.043 39.2668L179.046 25.2227H94.3203" stroke="white" stroke-width="0.2" stroke-miterlimit="10"/>
</g>
<defs>
<filter id="filter0_d_453_9396" x="0.433594" y="0.646973" width="223.566" height="267.474" filterUnits="userSpaceOnUse" color-interpolation-filters="sRGB">
<feFlood flood-opacity="0" result="BackgroundImageFix"/>
<feColorMatrix in="SourceAlpha" type="matrix" values="0 0 0 0 0 0 0 0 0 0 0 0 0 0 0 0 0 0 127 0" result="hardAlpha"/>
<feOffset/>
<feGaussianBlur stdDeviation="7.5"/>
<feComposite in2="hardAlpha" operator="out"/>
<feColorMatrix type="matrix" values="0 0 0 0 1 0 0 0 0 0.3 0 0 0 0 0.711111 0 0 0 0.54 0"/>
<feBlend mode="normal" in2="BackgroundImageFix" result="effect1_dropShadow_453_9396"/>
<feBlend mode="normal" in="SourceGraphic" in2="effect1_dropShadow_453_9396" result="shape"/>
</filter>
<filter id="filter1_f_453_9396" x="20.0391" y="163.903" width="37.7422" height="88.9387" filterUnits="userSpaceOnUse" color-interpolation-filters="sRGB">
<feFlood flood-opacity="0" result="BackgroundImageFix"/>
<feBlend mode="normal" in="SourceGraphic" in2="BackgroundImageFix" result="shape"/>
<feGaussianBlur stdDeviation="3" result="effect1_foregroundBlur_453_9396"/>
</filter>
<filter id="filter2_f_453_9396" x="23.8359" y="167.903" width="30.0781" height="81.0864" filterUnits="userSpaceOnUse" color-interpolation-filters="sRGB">
<feFlood flood-opacity="0" result="BackgroundImageFix"/>
<feBlend mode="normal" in="SourceGraphic" in2="BackgroundImageFix" result="shape"/>
<feGaussianBlur stdDeviation="1" result="effect1_foregroundBlur_453_9396"/>
</filter>
<filter id="filter3_ddi_453_9396" x="23.4391" y="169.303" width="30.9422" height="82.1387" filterUnits="userSpaceOnUse" color-interpolation-filters="sRGB">
<feFlood flood-opacity="0" result="BackgroundImageFix"/>
<feColorMatrix in="SourceAlpha" type="matrix" values="0 0 0 0 0 0 0 0 0 0 0 0 0 0 0 0 0 0 127 0" result="hardAlpha"/>
<feOffset dy="1.3"/>
<feGaussianBlur stdDeviation="0.5"/>
<feColorMatrix type="matrix" values="0 0 0 0 0.15 0 0 0 0 0 0 0 0 0 0 0 0 0 0.7 0"/>
<feBlend mode="multiply" in2="BackgroundImageFix" result="effect1_dropShadow_453_9396"/>
<feColorMatrix in="SourceAlpha" type="matrix" values="0 0 0 0 0 0 0 0 0 0 0 0 0 0 0 0 0 0 127 0" result="hardAlpha"/>
<feOffset dy="2"/>
<feGaussianBlur stdDeviation="1.3"/>
<feColorMatrix type="matrix" values="0 0 0 0 0.8 0 0 0 0 0.19 0 0 0 0 0.19 0 0 0 1 0"/>
<feBlend mode="color-dodge" in2="effect1_dropShadow_453_9396" result="effect2_dropShadow_453_9396"/>
<feBlend mode="normal" in="SourceGraphic" in2="effect2_dropShadow_453_9396" result="shape"/>
<feColorMatrix in="SourceAlpha" type="matrix" values="0 0 0 0 0 0 0 0 0 0 0 0 0 0 0 0 0 0 127 0" result="hardAlpha"/>
<feOffset dx="-0.13" dy="0.26"/>
<feGaussianBlur stdDeviation="0.065"/>
<feComposite in2="hardAlpha" operator="arithmetic" k2="-1" k3="1"/>
<feColorMatrix type="matrix" values="0 0 0 0 1 0 0 0 0 1 0 0 0 0 1 0 0 0 0.5 0"/>
<feBlend mode="normal" in2="shape" result="effect3_innerShadow_453_9396"/>
</filter>
<filter id="filter4_f_453_9396" x="26.0891" y="169.703" width="25.7242" height="77.1539" filterUnits="userSpaceOnUse" color-interpolation-filters="sRGB">
<feFlood flood-opacity="0" result="BackgroundImageFix"/>
<feBlend mode="normal" in="SourceGraphic" in2="BackgroundImageFix" result="shape"/>
<feGaussianBlur stdDeviation="0.1" result="effect1_foregroundBlur_453_9396"/>
</filter>
<filter id="filter5_f_453_9396" x="26.3549" y="169.77" width="25.2549" height="76.8729" filterUnits="userSpaceOnUse" color-interpolation-filters="sRGB">
<feFlood flood-opacity="0" result="BackgroundImageFix"/>
<feBlend mode="normal" in="SourceGraphic" in2="BackgroundImageFix" result="shape"/>
<feGaussianBlur stdDeviation="0.0666667" result="effect1_foregroundBlur_453_9396"/>
</filter>
<filter id="filter6_f_453_9396" x="22.9922" y="46.3193" width="19.8359" height="181.108" filterUnits="userSpaceOnUse" color-interpolation-filters="sRGB">
<feFlood flood-opacity="0" result="BackgroundImageFix"/>
<feBlend mode="normal" in="SourceGraphic" in2="BackgroundImageFix" result="shape"/>
<feGaussianBlur stdDeviation="1.5" result="effect1_foregroundBlur_453_9396"/>
</filter>
<filter id="filter7_f_453_9396" x="24.8906" y="48.3193" width="16.0391" height="177.108" filterUnits="userSpaceOnUse" color-interpolation-filters="sRGB">
<feFlood flood-opacity="0" result="BackgroundImageFix"/>
<feBlend mode="normal" in="SourceGraphic" in2="BackgroundImageFix" result="shape"/>
<feGaussianBlur stdDeviation="0.5" result="effect1_foregroundBlur_453_9396"/>
</filter>
<filter id="filter8_ddi_453_9396" x="24.6922" y="49.0193" width="16.4359" height="177.708" filterUnits="userSpaceOnUse" color-interpolation-filters="sRGB">
<feFlood flood-opacity="0" result="BackgroundImageFix"/>
<feColorMatrix in="SourceAlpha" type="matrix" values="0 0 0 0 0 0 0 0 0 0 0 0 0 0 0 0 0 0 127 0" result="hardAlpha"/>
<feOffset dy="0.65"/>
<feGaussianBlur stdDeviation="0.25"/>
<feColorMatrix type="matrix" values="0 0 0 0 0.15 0 0 0 0 0 0 0 0 0 0 0 0 0 0.7 0"/>
<feBlend mode="multiply" in2="BackgroundImageFix" result="effect1_dropShadow_453_9396"/>
<feColorMatrix in="SourceAlpha" type="matrix" values="0 0 0 0 0 0 0 0 0 0 0 0 0 0 0 0 0 0 127 0" result="hardAlpha"/>
<feOffset dy="1"/>
<feGaussianBlur stdDeviation="0.65"/>
<feColorMatrix type="matrix" values="0 0 0 0 0.8 0 0 0 0 0.19 0 0 0 0 0.19 0 0 0 1 0"/>
<feBlend mode="color-dodge" in2="effect1_dropShadow_453_9396" result="effect2_dropShadow_453_9396"/>
<feBlend mode="normal" in="SourceGraphic" in2="effect2_dropShadow_453_9396" result="shape"/>
<feColorMatrix in="SourceAlpha" type="matrix" values="0 0 0 0 0 0 0 0 0 0 0 0 0 0 0 0 0 0 127 0" result="hardAlpha"/>
<feOffset dx="-0.065" dy="0.13"/>
<feGaussianBlur stdDeviation="0.0325"/>
<feComposite in2="hardAlpha" operator="arithmetic" k2="-1" k3="1"/>
<feColorMatrix type="matrix" values="0 0 0 0 1 0 0 0 0 1 0 0 0 0 1 0 0 0 0.5 0"/>
<feBlend mode="normal" in2="shape" result="effect3_innerShadow_453_9396"/>
</filter>
<filter id="filter9_f_453_9396" x="26.0172" y="49.2193" width="13.7859" height="175.308" filterUnits="userSpaceOnUse" color-interpolation-filters="sRGB">
<feFlood flood-opacity="0" result="BackgroundImageFix"/>
<feBlend mode="normal" in="SourceGraphic" in2="BackgroundImageFix" result="shape"/>
<feGaussianBlur stdDeviation="0.05" result="effect1_foregroundBlur_453_9396"/>
</filter>
<filter id="filter10_f_453_9396" x="26.1482" y="49.2527" width="13.524" height="175.241" filterUnits="userSpaceOnUse" color-interpolation-filters="sRGB">
<feFlood flood-opacity="0" result="BackgroundImageFix"/>
<feBlend mode="normal" in="SourceGraphic" in2="BackgroundImageFix" result="shape"/>
<feGaussianBlur stdDeviation="0.0333333" result="effect1_foregroundBlur_453_9396"/>
</filter>
<filter id="filter11_f_453_9396" x="119.229" y="216.099" width="69.444" height="19.2028" filterUnits="userSpaceOnUse" color-interpolation-filters="sRGB">
<feFlood flood-opacity="0" result="BackgroundImageFix"/>
<feBlend mode="normal" in="SourceGraphic" in2="BackgroundImageFix" result="shape"/>
<feGaussianBlur stdDeviation="3.17058" result="effect1_foregroundBlur_453_9396"/>
</filter>
<filter id="filter12_f_453_9396" x="123.457" y="220.326" width="60.9892" height="10.7479" filterUnits="userSpaceOnUse" color-interpolation-filters="sRGB">
<feFlood flood-opacity="0" result="BackgroundImageFix"/>
<feBlend mode="normal" in="SourceGraphic" in2="BackgroundImageFix" result="shape"/>
<feGaussianBlur stdDeviation="1.05686" result="effect1_foregroundBlur_453_9396"/>
</filter>
<filter id="filter13_ddi_453_9396" x="122.822" y="221.806" width="62.2574" height="12.0162" filterUnits="userSpaceOnUse" color-interpolation-filters="sRGB">
<feFlood flood-opacity="0" result="BackgroundImageFix"/>
<feColorMatrix in="SourceAlpha" type="matrix" values="0 0 0 0 0 0 0 0 0 0 0 0 0 0 0 0 0 0 127 0" result="hardAlpha"/>
<feOffset dy="0.915945"/>
<feGaussianBlur stdDeviation="0.352286"/>
<feColorMatrix type="matrix" values="0 0 0 0 0.15 0 0 0 0 0 0 0 0 0 0 0 0 0 0.7 0"/>
<feBlend mode="multiply" in2="BackgroundImageFix" result="effect1_dropShadow_453_9396"/>
<feColorMatrix in="SourceAlpha" type="matrix" values="0 0 0 0 0 0 0 0 0 0 0 0 0 0 0 0 0 0 127 0" result="hardAlpha"/>
<feOffset dy="2.11372"/>
<feGaussianBlur stdDeviation="1.37392"/>
<feColorMatrix type="matrix" values="0 0 0 0 0.8 0 0 0 0 0.19 0 0 0 0 0.19 0 0 0 1 0"/>
<feBlend mode="color-dodge" in2="effect1_dropShadow_453_9396" result="effect2_dropShadow_453_9396"/>
<feBlend mode="normal" in="SourceGraphic" in2="effect2_dropShadow_453_9396" result="shape"/>
<feColorMatrix in="SourceAlpha" type="matrix" values="0 0 0 0 0 0 0 0 0 0 0 0 0 0 0 0 0 0 127 0" result="hardAlpha"/>
<feOffset dx="-0.0915945" dy="0.183189"/>
<feGaussianBlur stdDeviation="0.0457972"/>
<feComposite in2="hardAlpha" operator="arithmetic" k2="-1" k3="1"/>
<feColorMatrix type="matrix" values="0 0 0 0 1 0 0 0 0 1 0 0 0 0 1 0 0 0 0.5 0"/>
<feBlend mode="normal" in2="shape" result="effect3_innerShadow_453_9396"/>
</filter>
<filter id="filter14_f_453_9396" x="125.429" y="222.299" width="57.0435" height="6.80234" filterUnits="userSpaceOnUse" color-interpolation-filters="sRGB">
<feFlood flood-opacity="0" result="BackgroundImageFix"/>
<feBlend mode="normal" in="SourceGraphic" in2="BackgroundImageFix" result="shape"/>
<feGaussianBlur stdDeviation="0.0704573" result="effect1_foregroundBlur_453_9396"/>
</filter>
<filter id="filter15_f_453_9396" x="125.476" y="222.346" width="56.9496" height="6.70839" filterUnits="userSpaceOnUse" color-interpolation-filters="sRGB">
<feFlood flood-opacity="0" result="BackgroundImageFix"/>
<feBlend mode="normal" in="SourceGraphic" in2="BackgroundImageFix" result="shape"/>
<feGaussianBlur stdDeviation="0.0469715" result="effect1_foregroundBlur_453_9396"/>
</filter>
<filter id="filter16_f_453_9396" x="89.8203" y="20.3977" width="112.914" height="23.6304" filterUnits="userSpaceOnUse" color-interpolation-filters="sRGB">
<feFlood flood-opacity="0" result="BackgroundImageFix"/>
<feBlend mode="normal" in="SourceGraphic" in2="BackgroundImageFix" result="shape"/>
<feGaussianBlur stdDeviation="2.25" result="effect1_foregroundBlur_453_9396"/>
</filter>
<filter id="filter17_f_453_9396" x="92.8203" y="23.2976" width="106.977" height="17.811" filterUnits="userSpaceOnUse" color-interpolation-filters="sRGB">
<feFlood flood-opacity="0" result="BackgroundImageFix"/>
<feBlend mode="normal" in="SourceGraphic" in2="BackgroundImageFix" result="shape"/>
<feGaussianBlur stdDeviation="0.75" result="effect1_foregroundBlur_453_9396"/>
</filter>
<filter id="filter18_ddi_453_9396" x="92.3703" y="24.4477" width="107.814" height="18.5304" filterUnits="userSpaceOnUse" color-interpolation-filters="sRGB">
<feFlood flood-opacity="0" result="BackgroundImageFix"/>
<feColorMatrix in="SourceAlpha" type="matrix" values="0 0 0 0 0 0 0 0 0 0 0 0 0 0 0 0 0 0 127 0" result="hardAlpha"/>
<feOffset dy="0.65"/>
<feGaussianBlur stdDeviation="0.25"/>
<feColorMatrix type="matrix" values="0 0 0 0 0.15 0 0 0 0 0 0 0 0 0 0 0 0 0 0.7 0"/>
<feBlend mode="multiply" in2="BackgroundImageFix" result="effect1_dropShadow_453_9396"/>
<feColorMatrix in="SourceAlpha" type="matrix" values="0 0 0 0 0 0 0 0 0 0 0 0 0 0 0 0 0 0 127 0" result="hardAlpha"/>
<feOffset dy="1.5"/>
<feGaussianBlur stdDeviation="0.975"/>
<feColorMatrix type="matrix" values="0 0 0 0 0.8 0 0 0 0 0.19 0 0 0 0 0.19 0 0 0 1 0"/>
<feBlend mode="color-dodge" in2="effect1_dropShadow_453_9396" result="effect2_dropShadow_453_9396"/>
<feBlend mode="normal" in="SourceGraphic" in2="effect2_dropShadow_453_9396" result="shape"/>
<feColorMatrix in="SourceAlpha" type="matrix" values="0 0 0 0 0 0 0 0 0 0 0 0 0 0 0 0 0 0 127 0" result="hardAlpha"/>
<feOffset dx="-0.065" dy="0.13"/>
<feGaussianBlur stdDeviation="0.0325"/>
<feComposite in2="hardAlpha" operator="arithmetic" k2="-1" k3="1"/>
<feColorMatrix type="matrix" values="0 0 0 0 1 0 0 0 0 1 0 0 0 0 1 0 0 0 0.5 0"/>
<feBlend mode="normal" in2="shape" result="effect3_innerShadow_453_9396"/>
</filter>
<filter id="filter19_f_453_9396" x="94.2203" y="24.9227" width="104.04" height="14.605" filterUnits="userSpaceOnUse" color-interpolation-filters="sRGB">
<feFlood flood-opacity="0" result="BackgroundImageFix"/>
<feBlend mode="normal" in="SourceGraphic" in2="BackgroundImageFix" result="shape"/>
<feGaussianBlur stdDeviation="0.05" result="effect1_foregroundBlur_453_9396"/>
</filter>
<filter id="filter20_f_453_9396" x="94.2536" y="25.0559" width="103.915" height="14.3579" filterUnits="userSpaceOnUse" color-interpolation-filters="sRGB">
<feFlood flood-opacity="0" result="BackgroundImageFix"/>
<feBlend mode="normal" in="SourceGraphic" in2="BackgroundImageFix" result="shape"/>
<feGaussianBlur stdDeviation="0.0333333" result="effect1_foregroundBlur_453_9396"/>
</filter>
<linearGradient id="paint0_linear_453_9396" x1="112.241" y1="253.141" x2="112.241" y2="15.647" gradientUnits="userSpaceOnUse">
<stop/>
<stop offset="1" stop-color="#101010"/>
</linearGradient>
<linearGradient id="paint1_linear_453_9396" x1="55.5664" y1="150.204" x2="200.627" y2="150.204" gradientUnits="userSpaceOnUse">
<stop stop-color="#FFBF63"/>
<stop offset="1" stop-color="#FF4DB5"/>
</linearGradient>
<linearGradient id="paint2_linear_453_9396" x1="37.0728" y1="199.722" x2="51.8569" y2="200.234" gradientUnits="userSpaceOnUse">
<stop stop-color="#FF4DB5"/>
<stop offset="1" stop-color="#FFBF63"/>
</linearGradient>
<linearGradient id="paint3_linear_453_9396" x1="37.0728" y1="199.722" x2="51.8569" y2="200.234" gradientUnits="userSpaceOnUse">
<stop stop-color="#FF4DB5"/>
<stop offset="1" stop-color="#FFBF63"/>
</linearGradient>
<linearGradient id="paint4_linear_453_9396" x1="37.0728" y1="199.722" x2="51.8569" y2="200.234" gradientUnits="userSpaceOnUse">
<stop stop-color="#FF4DB5"/>
<stop offset="1" stop-color="#FFBF63"/>
</linearGradient>
<linearGradient id="paint5_linear_453_9396" x1="37.0728" y1="199.722" x2="51.8569" y2="200.234" gradientUnits="userSpaceOnUse">
<stop stop-color="#FF4DB5"/>
<stop offset="1" stop-color="#FFBF63"/>
</linearGradient>
<linearGradient id="paint6_linear_453_9396" x1="31.8713" y1="117.612" x2="39.7881" y2="117.676" gradientUnits="userSpaceOnUse">
<stop stop-color="#FF4DB5"/>
<stop offset="1" stop-color="#FFBF63"/>
</linearGradient>
<linearGradient id="paint7_linear_453_9396" x1="31.8713" y1="117.612" x2="39.7881" y2="117.676" gradientUnits="userSpaceOnUse">
<stop stop-color="#FF4DB5"/>
<stop offset="1" stop-color="#FFBF63"/>
</linearGradient>
<linearGradient id="paint8_linear_453_9396" x1="31.8713" y1="117.612" x2="39.7881" y2="117.676" gradientUnits="userSpaceOnUse">
<stop stop-color="#FF4DB5"/>
<stop offset="1" stop-color="#FFBF63"/>
</linearGradient>
<linearGradient id="paint9_linear_453_9396" x1="31.8713" y1="117.612" x2="39.7881" y2="117.676" gradientUnits="userSpaceOnUse">
<stop stop-color="#FF4DB5"/>
<stop offset="1" stop-color="#FFBF63"/>
</linearGradient>
<linearGradient id="paint10_linear_453_9396" x1="138.015" y1="30.6996" x2="176.238" y2="61.0184" gradientUnits="userSpaceOnUse">
<stop stop-color="#FF4DB5"/>
<stop offset="1" stop-color="#FFBF63"/>
</linearGradient>
<linearGradient id="paint11_linear_453_9396" x1="149.481" y1="224.983" x2="167.664" y2="241.984" gradientUnits="userSpaceOnUse">
<stop stop-color="#FF4DB5"/>
<stop offset="1" stop-color="#FFBF63"/>
</linearGradient>
<linearGradient id="paint12_linear_453_9396" x1="149.481" y1="224.983" x2="167.664" y2="241.984" gradientUnits="userSpaceOnUse">
<stop stop-color="#FF4DB5"/>
<stop offset="1" stop-color="#FFBF63"/>
</linearGradient>
<linearGradient id="paint13_linear_453_9396" x1="149.481" y1="224.983" x2="167.664" y2="241.984" gradientUnits="userSpaceOnUse">
<stop stop-color="#FF4DB5"/>
<stop offset="1" stop-color="#FFBF63"/>
</linearGradient>
<linearGradient id="paint14_linear_453_9396" x1="149.481" y1="224.983" x2="167.664" y2="241.984" gradientUnits="userSpaceOnUse">
<stop stop-color="#FF4DB5"/>
<stop offset="1" stop-color="#FFBF63"/>
</linearGradient>
<linearGradient id="paint15_linear_453_9396" x1="149.481" y1="224.983" x2="167.664" y2="241.984" gradientUnits="userSpaceOnUse">
<stop stop-color="#FF4DB5"/>
<stop offset="1" stop-color="#FFBF63"/>
</linearGradient>
<linearGradient id="paint16_linear_453_9396" x1="149.481" y1="224.983" x2="167.664" y2="241.984" gradientUnits="userSpaceOnUse">
<stop stop-color="#FF4DB5"/>
<stop offset="1" stop-color="#FFBF63"/>
</linearGradient>
<linearGradient id="paint17_linear_453_9396" x1="149.481" y1="224.983" x2="167.664" y2="241.984" gradientUnits="userSpaceOnUse">
<stop stop-color="#FF4DB5"/>
<stop offset="1" stop-color="#FFBF63"/>
</linearGradient>
<linearGradient id="paint18_linear_453_9396" x1="149.481" y1="224.983" x2="167.664" y2="241.984" gradientUnits="userSpaceOnUse">
<stop stop-color="#FF4DB5"/>
<stop offset="1" stop-color="#FFBF63"/>
</linearGradient>
<linearGradient id="paint19_linear_453_9396" x1="149.481" y1="224.983" x2="167.664" y2="241.984" gradientUnits="userSpaceOnUse">
<stop stop-color="#FF4DB5"/>
<stop offset="1" stop-color="#FFBF63"/>
</linearGradient>
<linearGradient id="paint20_linear_453_9396" x1="138.012" y1="30.6999" x2="176.234" y2="61.0186" gradientUnits="userSpaceOnUse">
<stop stop-color="#FF4DB5"/>
<stop offset="1" stop-color="#FFBF63"/>
</linearGradient>
</defs>
</svg>
