<svg width="26" height="26" viewBox="0 0 26 26" fill="none" xmlns="http://www.w3.org/2000/svg">
<g clip-path="url(#clip0_687_282)">
<path d="M24.9586 7.86026C24.9586 7.86026 24.714 6.15465 23.9607 5.40573C23.0069 4.42005 21.9406 4.41522 21.4514 4.35724C17.9492 4.10599 12.6909 4.10599 12.6909 4.10599H12.6812C12.6812 4.10599 7.4229 4.10599 3.92066 4.35724C3.43152 4.41522 2.36519 4.42005 1.41137 5.40573C0.658094 6.15465 0.418415 7.86026 0.418415 7.86026C0.418415 7.86026 0.164062 9.86543 0.164062 11.8658V13.7405C0.164062 15.7408 0.413524 17.746 0.413524 17.746C0.413524 17.746 0.658094 19.4516 1.40648 20.2005C2.3603 21.1862 3.6125 21.1524 4.17012 21.2587C6.17559 21.4471 12.686 21.5051 12.686 21.5051C12.686 21.5051 17.9492 21.4954 21.4514 21.249C21.9406 21.191 23.0069 21.1862 23.9607 20.2005C24.714 19.4516 24.9586 17.746 24.9586 17.746C24.9586 17.746 25.208 15.7457 25.208 13.7405V11.8658C25.208 9.86543 24.9586 7.86026 24.9586 7.86026ZM10.0985 16.0162V9.06336L16.8633 12.5519L10.0985 16.0162Z" fill="#A9A9A9"/>
</g>
<defs>
<clipPath id="clip0_687_282">
<rect width="25.044" height="24.7385" fill="white" transform="translate(0.164062 0.43866)"/>
</clipPath>
</defs>
</svg>
