<svg width="78" height="32" viewBox="0 0 78 32" fill="none" xmlns="http://www.w3.org/2000/svg">
<path d="M41.924 22.144C41.348 22.144 40.824 22.032 40.352 21.808C39.888 21.576 39.516 21.22 39.236 20.74C38.956 20.26 38.816 19.648 38.816 18.904V13.6H39.824V18.916C39.824 19.732 40.02 20.324 40.412 20.692C40.804 21.06 41.316 21.244 41.948 21.244C42.58 21.244 43.088 21.06 43.472 20.692C43.856 20.324 44.048 19.732 44.048 18.916V13.6H45.056V18.904C45.056 19.648 44.916 20.26 44.636 20.74C44.356 21.22 43.98 21.576 43.508 21.808C43.036 22.032 42.508 22.144 41.924 22.144ZM46.703 24.64V16.048H47.615L47.711 17.032C47.903 16.744 48.175 16.484 48.527 16.252C48.887 16.02 49.343 15.904 49.895 15.904C50.487 15.904 51.003 16.04 51.443 16.312C51.883 16.584 52.223 16.956 52.463 17.428C52.711 17.9 52.835 18.436 52.835 19.036C52.835 19.636 52.711 20.172 52.463 20.644C52.223 21.108 51.879 21.476 51.431 21.748C50.991 22.012 50.475 22.144 49.883 22.144C49.395 22.144 48.959 22.044 48.575 21.844C48.199 21.644 47.911 21.364 47.711 21.004V24.64H46.703ZM49.775 21.268C50.175 21.268 50.527 21.176 50.831 20.992C51.135 20.8 51.375 20.536 51.551 20.2C51.727 19.864 51.815 19.472 51.815 19.024C51.815 18.576 51.727 18.184 51.551 17.848C51.375 17.512 51.135 17.252 50.831 17.068C50.527 16.876 50.175 16.78 49.775 16.78C49.375 16.78 49.023 16.876 48.719 17.068C48.415 17.252 48.175 17.512 47.999 17.848C47.823 18.184 47.735 18.576 47.735 19.024C47.735 19.472 47.823 19.864 47.999 20.2C48.175 20.536 48.415 20.8 48.719 20.992C49.023 21.176 49.375 21.268 49.775 21.268ZM54.2382 22V13.36H55.2462V22H54.2382ZM59.6103 22.144C59.0503 22.144 58.5463 22.016 58.0983 21.76C57.6503 21.504 57.2943 21.144 57.0303 20.68C56.7743 20.208 56.6463 19.656 56.6463 19.024C56.6463 18.392 56.7783 17.844 57.0423 17.38C57.3063 16.908 57.6623 16.544 58.1103 16.288C58.5663 16.032 59.0743 15.904 59.6343 15.904C60.1943 15.904 60.6983 16.032 61.1463 16.288C61.5943 16.544 61.9463 16.908 62.2023 17.38C62.4663 17.844 62.5983 18.392 62.5983 19.024C62.5983 19.656 62.4663 20.208 62.2023 20.68C61.9383 21.144 61.5783 21.504 61.1223 21.76C60.6743 22.016 60.1703 22.144 59.6103 22.144ZM59.6103 21.28C59.9543 21.28 60.2743 21.196 60.5703 21.028C60.8663 20.86 61.1063 20.608 61.2903 20.272C61.4743 19.936 61.5663 19.52 61.5663 19.024C61.5663 18.528 61.4743 18.112 61.2903 17.776C61.1143 17.44 60.8783 17.188 60.5823 17.02C60.2863 16.852 59.9703 16.768 59.6343 16.768C59.2903 16.768 58.9703 16.852 58.6743 17.02C58.3783 17.188 58.1383 17.44 57.9543 17.776C57.7703 18.112 57.6783 18.528 57.6783 19.024C57.6783 19.52 57.7703 19.936 57.9543 20.272C58.1383 20.608 58.3743 20.86 58.6623 21.028C58.9583 21.196 59.2743 21.28 59.6103 21.28ZM65.9799 22.144C65.4839 22.144 65.0719 22.06 64.7439 21.892C64.4159 21.724 64.1719 21.5 64.0119 21.22C63.8519 20.94 63.7719 20.636 63.7719 20.308C63.7719 19.7 64.0039 19.232 64.4679 18.904C64.9319 18.576 65.5639 18.412 66.3639 18.412H67.9719V18.34C67.9719 17.82 67.8359 17.428 67.5639 17.164C67.2919 16.892 66.9279 16.756 66.4719 16.756C66.0799 16.756 65.7399 16.856 65.4519 17.056C65.1719 17.248 64.9959 17.532 64.9239 17.908H63.8919C63.9319 17.476 64.0759 17.112 64.3239 16.816C64.5799 16.52 64.8959 16.296 65.2719 16.144C65.6479 15.984 66.0479 15.904 66.4719 15.904C67.3039 15.904 67.9279 16.128 68.3439 16.576C68.7679 17.016 68.9799 17.604 68.9799 18.34V22H68.0799L68.0199 20.932C67.8519 21.268 67.6039 21.556 67.2759 21.796C66.9559 22.028 66.5239 22.144 65.9799 22.144ZM66.1359 21.292C66.5199 21.292 66.8479 21.192 67.1199 20.992C67.3999 20.792 67.6119 20.532 67.7559 20.212C67.8999 19.892 67.9719 19.556 67.9719 19.204V19.192H66.4479C65.8559 19.192 65.4359 19.296 65.1879 19.504C64.9479 19.704 64.8279 19.956 64.8279 20.26C64.8279 20.572 64.9399 20.824 65.1639 21.016C65.3959 21.2 65.7199 21.292 66.1359 21.292ZM73.1921 22.144C72.6001 22.144 72.0801 22.008 71.6321 21.736C71.1921 21.464 70.8481 21.092 70.6001 20.62C70.3601 20.148 70.2401 19.612 70.2401 19.012C70.2401 18.412 70.3641 17.88 70.6121 17.416C70.8601 16.944 71.2041 16.576 71.6441 16.312C72.0841 16.04 72.6041 15.904 73.2041 15.904C73.6921 15.904 74.1241 16.004 74.5001 16.204C74.8761 16.404 75.1681 16.684 75.3761 17.044V13.36H76.3841V22H75.4721L75.3761 21.016C75.1841 21.304 74.9081 21.564 74.5481 21.796C74.1881 22.028 73.7361 22.144 73.1921 22.144ZM73.3001 21.268C73.7001 21.268 74.0521 21.176 74.3561 20.992C74.6681 20.8 74.9081 20.536 75.0761 20.2C75.2521 19.864 75.3401 19.472 75.3401 19.024C75.3401 18.576 75.2521 18.184 75.0761 17.848C74.9081 17.512 74.6681 17.252 74.3561 17.068C74.0521 16.876 73.7001 16.78 73.3001 16.78C72.9081 16.78 72.5561 16.876 72.2441 17.068C71.9401 17.252 71.7001 17.512 71.5241 17.848C71.3561 18.184 71.2721 18.576 71.2721 19.024C71.2721 19.472 71.3561 19.864 71.5241 20.2C71.7001 20.536 71.9401 20.8 72.2441 20.992C72.5561 21.176 72.9081 21.268 73.3001 21.268Z" fill="#AEA4CE"/>
<path fill-rule="evenodd" clip-rule="evenodd" d="M6.9784 8.82004C7.5166 8.82004 7.9534 9.25684 7.9534 9.79504C7.9534 10.3332 7.5166 10.77 6.9784 10.77H5.7655C3.6608 10.77 1.95 12.4808 1.95 14.5842V20.9217C1.95 23.0264 3.6608 24.7372 5.7655 24.7372H20.2345C22.3379 24.7372 24.05 23.0264 24.05 20.9217V14.5725C24.05 12.4756 22.3444 10.77 20.2488 10.77H19.0229C18.4847 10.77 18.0479 10.3332 18.0479 9.79504C18.0479 9.25684 18.4847 8.82004 19.0229 8.82004H20.2488C23.4195 8.82004 26 11.4005 26 14.5725V20.9217C26 24.1015 23.413 26.6872 20.2345 26.6872H5.7655C2.587 26.6872 0 24.1015 0 20.9217V14.5842C0 11.4057 2.587 8.82004 5.7655 8.82004H6.9784ZM13.6898 0.275925L17.4806 4.08232C17.8602 4.46452 17.8589 5.08073 17.478 5.46032C17.0958 5.83992 16.4796 5.83992 16.1 5.45772L13.9737 3.3241L13.9745 17.591H12.0245L12.0237 3.3241L9.90028 5.45772C9.71048 5.65012 9.45958 5.74502 9.20998 5.74502C8.96168 5.74502 8.71208 5.65012 8.52228 5.46032C8.14138 5.08073 8.13878 4.46452 8.51968 4.08232L12.3092 0.275925C12.6745 -0.091975 13.3245 -0.091975 13.6898 0.275925Z" fill="#5F598C"/>
</svg>