<svg width="24" height="24" viewBox="0 0 24 24" fill="none" xmlns="http://www.w3.org/2000/svg">
<g clip-path="url(#clip0_687_281)">
<path d="M7.99242 20.9443C16.5817 20.9443 21.281 13.9133 21.281 7.81779C21.281 7.62013 21.2766 7.41807 21.2677 7.22041C22.1818 6.56737 22.9707 5.75849 23.5973 4.83177C22.7459 5.20594 21.842 5.45031 20.9164 5.55653C21.891 4.97946 22.6207 4.07291 22.9703 3.00493C22.0535 3.54167 21.0508 3.9203 20.0053 4.12458C19.3008 3.38519 18.3694 2.89562 17.355 2.73157C16.3406 2.56753 15.2998 2.73813 14.3934 3.21702C13.487 3.6959 12.7656 4.45639 12.3407 5.3809C11.9157 6.30542 11.8109 7.34247 12.0425 8.33171C10.186 8.23969 8.36977 7.76329 6.7116 6.93342C5.05343 6.10355 3.59031 4.93873 2.41711 3.51446C1.82083 4.52998 1.63837 5.73168 1.90681 6.87532C2.17525 8.01896 2.87445 9.01872 3.8623 9.67143C3.12068 9.64817 2.3953 9.45093 1.7461 9.09601V9.15311C1.74544 10.2188 2.11842 11.2519 2.80164 12.0767C3.48485 12.9015 4.43615 13.4671 5.4938 13.6774C4.80681 13.8631 4.08578 13.8901 3.3865 13.7564C3.68495 14.673 4.26563 15.4746 5.04749 16.0494C5.82935 16.6243 6.77339 16.9436 7.74785 16.963C6.09351 18.2466 4.04991 18.9429 1.94621 18.9396C1.57313 18.939 1.20042 18.9164 0.830078 18.872C2.96722 20.2263 5.45328 20.9456 7.99242 20.9443Z" fill="#A9A9A9"/>
</g>
<defs>
<clipPath id="clip0_687_281">
<rect width="22.7672" height="22.4896" fill="white" transform="translate(0.830078 0.56311)"/>
</clipPath>
</defs>
</svg>
