<svg width="20" height="20" viewBox="0 0 20 20" fill="none" xmlns="http://www.w3.org/2000/svg">
<path d="M8.33301 6.6665H16.6663C17.5855 6.6665 18.333 7.414 18.333 8.33317V16.6665C18.333 17.5857 17.5855 18.3332 16.6663 18.3332H8.33301C7.41384 18.3332 6.66634 17.5857 6.66634 16.6665V8.33317C6.66634 7.414 7.41384 6.6665 8.33301 6.6665Z" fill="#757575"/>
<path d="M3.33301 1.6665H11.6663C12.1084 1.6665 12.5323 1.8421 12.8449 2.15466C13.1574 2.46722 13.333 2.89114 13.333 3.33317V4.99984H6.66634C6.22431 4.99984 5.80039 5.17543 5.48783 5.48799C5.17527 5.80055 4.99967 6.22448 4.99967 6.6665V13.3332H3.33301C2.89098 13.3332 2.46706 13.1576 2.1545 12.845C1.84194 12.5325 1.66634 12.1085 1.66634 11.6665V3.33317C1.66634 2.89114 1.84194 2.46722 2.1545 2.15466C2.46706 1.8421 2.89098 1.6665 3.33301 1.6665Z" fill="#757575"/>
</svg>
