<svg width="250" height="250" viewBox="0 0 250 250" fill="none" xmlns="http://www.w3.org/2000/svg">
<g clip-path="url(#clip0_4_7156)">
<path d="M125 250C194.036 250 250 194.036 250 125C250 55.9644 194.036 0 125 0C55.9644 0 0 55.9644 0 125C0 194.036 55.9644 250 125 250Z" fill="#F0F0F0"/>
<path d="M250 125C250 71.2544 216.079 25.4365 168.479 7.7749V242.226C216.079 224.563 250 178.746 250 125Z" fill="#D80027"/>
<path d="M0 125C0 178.746 33.9224 224.563 81.522 242.225V7.7749C33.9224 25.4365 0 71.2544 0 125Z" fill="#0052B4"/>
</g>
<defs>
<clipPath id="clip0_4_7156">
<rect width="250" height="250" fill="white"/>
</clipPath>
</defs>
</svg>
