<svg width="112" height="98" viewBox="0 0 112 98" fill="none" xmlns="http://www.w3.org/2000/svg">
<path d="M47.8736 26.6385L48.3228 27.5566L48.7719 26.6384C52.2594 19.5086 57.8494 14.5942 65.3125 14.5942C70.6933 14.5942 75.3711 17.338 78.7184 21.6133C82.0681 25.8915 84.0654 31.6831 84.0654 37.7003C84.0654 50.5811 75.1507 61.6665 66.1146 69.5811C61.6087 73.5277 57.1005 76.6615 53.7177 78.8088C52.0268 79.8821 50.6184 80.7082 49.6338 81.2654C49.1415 81.544 48.7553 81.7553 48.4927 81.8966C48.4256 81.9327 48.3666 81.9643 48.3159 81.9912C48.266 81.9662 48.208 81.9369 48.1422 81.9035C47.88 81.7702 47.494 81.5705 47.002 81.3063C46.0179 80.7778 44.6101 79.9915 42.9198 78.9624C39.5382 76.9036 35.0317 73.8761 30.5275 70.001C21.4989 62.2335 12.5801 51.1476 12.5801 37.7003C12.5801 31.6821 14.5778 25.8905 17.928 21.6125C21.2758 17.3376 25.9541 14.5942 31.335 14.5942C38.796 14.5942 44.3841 19.5065 47.8736 26.6385Z" fill="#090909" stroke="url(#paint0_linear_428_944)"/>
<path d="M73.1384 41.8192L73.5876 42.7372L74.0366 41.8191C76.7926 36.1848 81.1969 32.325 87.0619 32.325C91.2915 32.325 94.9734 34.4811 97.6126 37.852C100.254 41.2259 101.831 45.7964 101.831 50.5467C101.831 60.7154 94.7913 69.4808 87.6299 75.7533C84.0614 78.8789 80.4905 81.3611 77.8108 83.0622C76.4714 83.9124 75.3559 84.5667 74.5763 85.0078C74.1866 85.2284 73.8809 85.3956 73.6733 85.5074C73.6399 85.5254 73.609 85.5419 73.5807 85.557C73.5533 85.5432 73.5235 85.5281 73.4912 85.5117C73.2839 85.4063 72.9784 85.2483 72.589 85.0392C71.8099 84.6208 70.6951 83.9981 69.3563 83.183C66.6778 81.5522 63.1085 79.1544 59.5417 76.0858C52.3879 69.9311 45.3438 61.1652 45.3438 50.5467C45.3438 45.7957 46.9211 41.2251 49.5631 37.8514C52.2028 34.4808 55.8851 32.325 60.1147 32.325C65.978 32.325 70.3808 36.1832 73.1384 41.8192Z" fill="#050505" stroke="url(#paint1_linear_428_944)"/>
<defs>
<linearGradient id="paint0_linear_428_944" x1="42.6133" y1="40.793" x2="85.5756" y2="45.6787" gradientUnits="userSpaceOnUse">
<stop stop-color="#FF4DB5"/>
<stop offset="1" stop-color="#FFBF63"/>
</linearGradient>
<linearGradient id="paint1_linear_428_944" x1="69.0594" y1="52.9995" x2="103.133" y2="56.8743" gradientUnits="userSpaceOnUse">
<stop stop-color="#FF4DB5"/>
<stop offset="1" stop-color="#FFBF63"/>
</linearGradient>
</defs>
</svg>
