<svg width="10" height="8" viewBox="0 0 10 8" fill="none" xmlns="http://www.w3.org/2000/svg">
<path d="M5.7048 7.70463C5.7512 7.65943 5.9496 7.48875 6.1128 7.32976C7.1392 6.39766 8.8192 3.9661 9.332 2.69342C9.4144 2.50015 9.5888 2.0115 9.6 1.75041C9.6 1.50024 9.5424 1.26176 9.4256 1.03419C9.2624 0.750512 9.0056 0.522942 8.7024 0.398247C8.492 0.317974 7.8624 0.193278 7.8512 0.193278C7.1624 0.0685828 6.0432 -1.19209e-07 4.8064 -1.19209e-07C3.628 -1.19209e-07 2.5544 0.0685826 1.8552 0.170677C1.844 0.182367 1.0616 0.307063 0.7936 0.443449C0.304 0.693619 0 1.18227 0 1.70521V1.75041C0.012 2.09099 0.316 2.80721 0.3272 2.80721C0.8408 4.0113 2.4384 6.38675 3.5 7.34145C3.5 7.34145 3.7728 7.61033 3.9432 7.72723C4.188 7.9096 4.4912 8 4.7944 8C5.1328 8 5.448 7.89791 5.7048 7.70463Z" fill="#757575"/>
</svg>
