<svg width="250" height="250" viewBox="0 0 250 250" fill="none" xmlns="http://www.w3.org/2000/svg">
<g clip-path="url(#clip0_4_7292)">
<path d="M0 125C0 140.29 2.75049 154.937 7.7749 168.478L125 179.348L242.225 168.478C247.25 154.937 250 140.29 250 125C250 109.71 247.25 95.0635 242.225 81.522L125 70.6523L7.7749 81.522C2.75049 95.0635 0 109.71 0 125H0Z" fill="#FFDA44"/>
<path d="M242.225 81.522C224.563 33.9224 178.746 0 125 0C71.2544 0 25.4365 33.9224 7.7749 81.522H242.225Z" fill="#D80027"/>
<path d="M7.7749 168.478C25.4365 216.078 71.2544 250 125 250C178.746 250 224.563 216.078 242.225 168.478H7.7749Z" fill="#D80027"/>
</g>
<defs>
<clipPath id="clip0_4_7292">
<rect width="250" height="250" fill="white"/>
</clipPath>
</defs>
</svg>
