<svg width="16" height="16" viewBox="0 0 16 16" fill="none" xmlns="http://www.w3.org/2000/svg">
<path d="M7.9987 1.3335C6.68016 1.3335 5.39123 1.72449 4.2949 2.45703C3.19857 3.18957 2.34409 4.23077 1.8395 5.44894C1.33492 6.66711 1.2029 8.00756 1.46013 9.30076C1.71737 10.594 2.35231 11.7819 3.28466 12.7142C4.21701 13.6466 5.40489 14.2815 6.6981 14.5387C7.99131 14.796 9.33175 14.6639 10.5499 14.1594C11.7681 13.6548 12.8093 12.8003 13.5418 11.704C14.2744 10.6076 14.6654 9.3187 14.6654 8.00016C14.6654 7.12468 14.4929 6.25778 14.1579 5.44894C13.8229 4.6401 13.3318 3.90517 12.7127 3.28612C12.0937 2.66706 11.3588 2.176 10.5499 1.84097C9.74109 1.50593 8.87418 1.3335 7.9987 1.3335ZM7.9987 13.3335C6.94387 13.3335 5.91272 13.0207 5.03566 12.4347C4.1586 11.8486 3.47501 11.0157 3.07134 10.0411C2.66768 9.0666 2.56206 7.99425 2.76785 6.95968C2.97363 5.92512 3.48158 4.97481 4.22746 4.22893C4.97334 3.48305 5.92365 2.9751 6.95822 2.76931C7.99278 2.56352 9.06514 2.66914 10.0397 3.07281C11.0142 3.47647 11.8472 4.16006 12.4332 5.03712C13.0192 5.91418 13.332 6.94533 13.332 8.00016C13.332 9.41465 12.7701 10.7712 11.7699 11.7714C10.7697 12.7716 9.41319 13.3335 7.9987 13.3335Z" fill="#757575"/>
<path d="M7.9987 5.99984C8.36689 5.99984 8.66536 5.70136 8.66536 5.33317C8.66536 4.96498 8.36689 4.6665 7.9987 4.6665C7.63051 4.6665 7.33203 4.96498 7.33203 5.33317C7.33203 5.70136 7.63051 5.99984 7.9987 5.99984Z" fill="#757575"/>
<path d="M7.9987 6.6665C7.82189 6.6665 7.65232 6.73674 7.52729 6.86177C7.40227 6.98679 7.33203 7.15636 7.33203 7.33317V10.6665C7.33203 10.8433 7.40227 11.0129 7.52729 11.1379C7.65232 11.2629 7.82189 11.3332 7.9987 11.3332C8.17551 11.3332 8.34508 11.2629 8.4701 11.1379C8.59513 11.0129 8.66536 10.8433 8.66536 10.6665V7.33317C8.66536 7.15636 8.59513 6.98679 8.4701 6.86177C8.34508 6.73674 8.17551 6.6665 7.9987 6.6665Z" fill="#757575"/>
</svg>
