<svg width="28" height="28" viewBox="0 0 28 28" fill="none" xmlns="http://www.w3.org/2000/svg">
<g clip-path="url(#clip0_687_283)">
<path d="M5.5415 18.6663C7.95775 18.6663 9.9165 16.7076 9.9165 14.2913C9.9165 11.8751 7.95775 9.91632 5.5415 9.91632C3.12526 9.91632 1.1665 11.8751 1.1665 14.2913C1.1665 16.7076 3.12526 18.6663 5.5415 18.6663Z" stroke="#FAC037" stroke-width="2" stroke-miterlimit="10"/>
<path d="M22.4585 9.91629C24.8747 9.91629 26.8335 7.95754 26.8335 5.54129C26.8335 3.12504 24.8747 1.16629 22.4585 1.16629C20.0423 1.16629 18.0835 3.12504 18.0835 5.54129C18.0835 7.95754 20.0423 9.91629 22.4585 9.91629Z" stroke="#FAC037" stroke-width="2" stroke-miterlimit="10"/>
<path d="M22.4585 27.4163C24.8747 27.4163 26.8335 25.4575 26.8335 23.0413C26.8335 20.625 24.8747 18.6663 22.4585 18.6663C20.0423 18.6663 18.0835 20.625 18.0835 23.0413C18.0835 25.4575 20.0423 27.4163 22.4585 27.4163Z" stroke="#FAC037" stroke-width="2" stroke-miterlimit="10"/>
<path d="M9.3916 12.2132L18.601 7.61218" stroke="#FAC037" stroke-width="2" stroke-miterlimit="10"/>
<path d="M18.601 20.9705L9.3916 16.3694" stroke="#FAC037" stroke-width="2" stroke-miterlimit="10"/>
</g>
<defs>
<clipPath id="clip0_687_283">
<rect width="28" height="28" fill="white"/>
</clipPath>
</defs>
</svg>
