<svg width="21" height="17" viewBox="0 0 21 17" fill="none" xmlns="http://www.w3.org/2000/svg">
<path fill-rule="evenodd" clip-rule="evenodd" d="M1.98362 7.16159C7.25826 4.87893 10.7755 3.37406 12.5354 2.64698C17.5602 0.571015 18.6043 0.210399 19.2848 0.198491C19.4345 0.195872 19.7691 0.232718 19.9859 0.407442C20.169 0.554976 20.2193 0.754274 20.2434 0.894152C20.2675 1.03403 20.2975 1.35268 20.2737 1.60166C20.0014 4.44349 18.8232 11.3399 18.2238 14.5228C17.9701 15.8696 17.4707 16.3211 16.9872 16.3653C15.9365 16.4614 15.1386 15.6756 14.121 15.013C12.5285 13.9761 11.6289 13.3306 10.0831 12.3188C8.29668 11.1495 9.45473 10.5068 10.4728 9.45652C10.7392 9.18164 15.3688 4.99897 15.4584 4.61954C15.4696 4.57209 15.48 4.3952 15.3742 4.30179C15.2684 4.20839 15.1122 4.24033 14.9996 4.26573C14.8398 4.30174 12.2958 5.97195 7.36758 9.27635C6.64548 9.76888 5.99142 10.0089 5.40541 9.99627C4.75937 9.98241 3.51666 9.63345 2.59284 9.33516C1.45973 8.9693 0.559153 8.77587 0.637573 8.15453C0.678419 7.8309 1.1271 7.49992 1.98362 7.16159Z" fill="#A9A9A9"/>
</svg>
