<svg width="20" height="20" viewBox="0 0 20 20" fill="none" xmlns="http://www.w3.org/2000/svg">
<path d="M8.33203 6.6665H16.6654C17.5845 6.6665 18.332 7.414 18.332 8.33317V16.6665C18.332 17.5857 17.5845 18.3332 16.6654 18.3332H8.33203C7.41286 18.3332 6.66537 17.5857 6.66537 16.6665V8.33317C6.66537 7.414 7.41286 6.6665 8.33203 6.6665Z" fill="#757575"/>
<path d="M3.33203 1.6665H11.6654C12.1074 1.6665 12.5313 1.8421 12.8439 2.15466C13.1564 2.46722 13.332 2.89114 13.332 3.33317V4.99984H6.66536C6.22334 4.99984 5.79941 5.17543 5.48685 5.48799C5.17429 5.80055 4.9987 6.22448 4.9987 6.6665V13.3332H3.33203C2.89 13.3332 2.46608 13.1576 2.15352 12.845C1.84096 12.5325 1.66537 12.1085 1.66537 11.6665V3.33317C1.66537 2.89114 1.84096 2.46722 2.15352 2.15466C2.46608 1.8421 2.89 1.6665 3.33203 1.6665Z" fill="#757575"/>
</svg>
