<svg width="18" height="12" viewBox="0 0 18 12" fill="none" xmlns="http://www.w3.org/2000/svg">
<path d="M7.83656 6.3607L7.83503 6.00661C7.83503 4.53497 7.92121 3.19332 8.05103 2.31871L8.16476 1.77483C8.22803 1.48678 8.31121 1.1588 8.39793 0.991371C8.71539 0.378924 9.33611 0 10.0005 0H10.0583C10.4914 0.0143198 11.4012 0.394346 11.4012 0.407564C12.8652 1.02183 15.6895 2.87572 16.994 4.19739L17.3731 4.59419C17.4723 4.70173 17.5839 4.82901 17.6531 4.92822C17.8844 5.23444 18 5.61337 18 5.99229C18 6.41527 17.8702 6.80852 17.6247 7.13016L17.2353 7.55047L17.148 7.64017C15.9644 8.92344 12.8739 11.0218 11.2572 11.664L11.0131 11.7576C10.7194 11.8629 10.3078 11.9884 10.0583 12C9.74083 12 9.43756 11.9262 9.14847 11.7808C8.78738 11.577 8.49939 11.2554 8.34012 10.8764C8.23866 10.6143 8.07939 9.82669 8.07939 9.81237C7.93338 9.01826 7.84872 7.76518 7.83656 6.3607ZM0 5.99956C0 5.1613 0.673083 4.48166 1.50325 4.48166L5.20248 4.80881C5.85375 4.80881 6.38174 5.34195 6.38174 5.99956C6.38174 6.65827 5.85375 7.19031 5.20248 7.19031L1.50325 7.51746C0.673083 7.51746 0 6.83782 0 5.99956Z" fill="url(#paint0_linear_352_4270)"/>
<defs>
<linearGradient id="paint0_linear_352_4270" x1="7.58219" y1="4.68" x2="18.1155" y2="6.37696" gradientUnits="userSpaceOnUse">
<stop stop-color="#FF4DB5"/>
<stop offset="1" stop-color="#FFBF63"/>
</linearGradient>
</defs>
</svg>
