<svg width="26" height="26" viewBox="0 0 26 26" fill="none" xmlns="http://www.w3.org/2000/svg">
<path d="M19.058 0C23.478 0 26 2.496 26 6.929V19.071C26 23.478 23.491 26 19.071 26H6.929C2.496 26 0 23.478 0 19.071V6.929C0 2.496 2.496 0 6.929 0H19.058ZM12.987 7.163C12.389 7.163 11.908 7.644 11.908 8.242V11.908H8.229C7.943 11.908 7.67 12.025 7.462 12.22C7.267 12.428 7.15 12.6997 7.15 12.987C7.15 13.585 7.631 14.066 8.229 14.079H11.908V17.758C11.908 18.356 12.389 18.837 12.987 18.837C13.585 18.837 14.066 18.356 14.066 17.758V14.079H17.758C18.356 14.066 18.837 13.585 18.837 12.987C18.837 12.389 18.356 11.908 17.758 11.908H14.066V8.242C14.066 7.644 13.585 7.163 12.987 7.163Z" fill="url(#paint0_linear_461_36965)"/>
<defs>
<linearGradient id="paint0_linear_461_36965" x1="10.9521" y1="10.14" x2="26.3837" y2="11.7974" gradientUnits="userSpaceOnUse">
<stop stop-color="#FF4DB5"/>
<stop offset="1" stop-color="#FFBF63"/>
</linearGradient>
</defs>
</svg>
