<svg width="770" height="365" viewBox="0 0 770 365" fill="none" xmlns="http://www.w3.org/2000/svg">
<g clip-path="url(#clip0_319_1038)">
<path d="M384.909 58.4C453.396 58.4 509.009 114.013 509.009 182.5C509.009 250.987 453.396 306.6 384.909 306.6C316.422 306.6 260.942 251.12 260.809 182.633" stroke="white" stroke-opacity="0.07"/>
<path d="M384.909 89.4581C436.274 89.4581 477.951 131.134 477.951 182.5C477.951 233.865 436.274 275.542 384.909 275.542C333.543 275.542 291.867 233.865 291.867 182.5" stroke="white" stroke-opacity="0.07"/>
<path d="M384.909 120.516C419.152 120.516 447.025 148.256 447.025 182.633C447.025 217.009 419.285 244.749 384.909 244.749C350.665 244.749 322.925 217.009 322.925 182.765" stroke="white" stroke-opacity="0.07"/>
<path d="M384.909 151.442C402.031 151.442 415.967 165.378 415.967 182.5C415.967 199.622 402.031 213.558 384.909 213.558C367.787 213.558 353.851 199.622 353.851 182.5" stroke="white" stroke-opacity="0.07"/>
<path d="M384.909 151.442C402.031 151.442 415.967 165.378 415.967 182.5C415.967 199.622 402.031 213.558 384.909 213.558C367.787 213.558 353.851 199.622 353.851 182.5" stroke="white" stroke-opacity="0.07"/>
<path d="M384.909 27.3418C470.518 27.3418 540.067 96.7582 540.067 182.5C540.067 268.242 470.518 337.658 384.909 337.658C299.3 337.658 229.884 268.242 229.751 182.633" stroke="white" stroke-opacity="0.07"/>
<path d="M384.909 151.442V27.3418" stroke="white" stroke-opacity="0.07"/>
<path d="M393.934 152.769L429.903 33.9781" stroke="white" stroke-opacity="0.07"/>
<path d="M402.163 156.751L471.049 53.6218" stroke="white" stroke-opacity="0.07"/>
<path d="M408.933 162.856L504.894 84.149" stroke="white" stroke-opacity="0.07"/>
<path d="M413.578 170.687L528.254 123.171" stroke="white" stroke-opacity="0.07"/>
<path d="M415.834 179.447L539.271 167.236" stroke="white" stroke-opacity="0.07"/>
<path d="M415.303 188.605L537.014 212.762" stroke="white" stroke-opacity="0.07"/>
<path d="M412.251 197.1L521.751 255.633" stroke="white" stroke-opacity="0.07"/>
<path d="M406.809 204.4L494.542 292.133" stroke="white" stroke-opacity="0.07"/>
<path d="M399.509 209.842L458.042 319.342" stroke="white" stroke-opacity="0.07"/>
<path d="M391.014 212.895L415.171 334.605" stroke="white" stroke-opacity="0.07"/>
<path d="M381.856 213.425L369.645 336.862" stroke="white" stroke-opacity="0.07"/>
<path d="M373.096 211.169L325.58 325.845" stroke="white" stroke-opacity="0.07"/>
<path d="M365.265 206.524L286.558 302.485" stroke="white" stroke-opacity="0.07"/>
<path d="M359.16 199.755L256.031 268.64" stroke="white" stroke-opacity="0.07"/>
<path d="M355.178 191.525L236.387 227.494" stroke="white" stroke-opacity="0.07"/>
<path d="M353.851 182.5H229.751" stroke="white" stroke-opacity="0.07"/>
<path d="M384.909 32.6509C467.996 32.6509 535.422 100.076 535.422 183.164C535.422 191.791 534.625 200.418 533.165 208.913L511.796 205.196C524.007 135.116 477.022 68.4872 406.942 56.2763C399.642 54.9491 392.342 54.4181 384.909 54.4181V32.6509Z" fill="#00C2FF"/>
<path d="M384.909 63.7091C439.858 63.7091 487.772 101.271 500.912 154.76L479.809 159.936C469.058 116.136 429.903 85.4764 384.909 85.4764V63.7091Z" fill="#CCFF00"/>
<path d="M384.909 94.7672C422.205 94.7672 455.387 118.127 468.129 153.167L447.689 160.6C438.133 134.054 413.047 116.402 384.909 116.402V94.7672Z" fill="#FFD700"/>
<path d="M384.909 125.825C401.102 125.825 416.631 132.727 427.514 144.673L411.454 159.273C404.685 151.84 395.129 147.593 385.042 147.593V125.825H384.909Z" fill="#FF049B"/>
<path d="M533.165 209.045C521.22 277.267 464.28 328.633 395.129 333.278L393.669 311.644C452.865 307.662 501.576 263.729 511.796 205.329L533.165 209.045Z" fill="#202020"/>
<path d="M500.912 154.76C515.114 212.895 484.189 272.489 428.576 294.256L420.612 274.082C466.138 256.164 491.489 207.453 479.809 159.936L500.912 154.76Z" fill="#202020"/>
<path d="M468.129 153.167C479.942 186.084 471.314 222.849 446.096 247.005L431.098 231.344C450.078 213.16 456.582 185.42 447.689 160.6L468.129 153.167Z" fill="#202020"/>
<path d="M427.514 144.673C441.053 159.671 445.698 180.775 439.725 200.153L419.02 193.782C422.736 181.704 419.816 168.696 411.454 159.273L427.514 144.673Z" fill="#202020"/>
</g>
<defs>
<clipPath id="clip0_319_1038">
<rect width="769.818" height="365" fill="white"/>
</clipPath>
</defs>
</svg>
