<svg width="439" height="440" viewBox="0 0 439 440" fill="none" xmlns="http://www.w3.org/2000/svg">
<path d="M47.969 174.63C48.1871 173.54 48.6232 172.668 48.8412 171.578L53.202 158.059C54.7283 154.352 55.8185 151.954 55.8185 151.954L56.0366 151.736H56.2546C56.2546 151.736 61.2696 150.21 66.0665 149.119C68.4649 148.465 70.8634 148.029 72.6077 147.593C72.6077 147.593 74.352 147.157 75.4422 147.157L79.1489 140.616C79.585 139.962 80.0211 139.09 80.4572 138.217C81.3293 136.691 82.2015 135.165 83.2917 133.42L91.3592 121.864C92.0133 120.992 92.6675 120.338 93.3216 119.466C93.7577 119.03 93.9757 118.594 94.4118 118.158L99.6448 112.052C101.389 109.872 102.697 108.564 103.57 107.692L104.66 106.383L105.532 107.255L104.006 108.782C103.133 109.654 101.825 110.962 100.299 112.925L95.0659 119.03C94.6299 119.466 94.4118 119.902 93.9757 120.338C93.3216 120.992 92.6675 121.864 92.2314 122.518L84.1639 134.075C83.0737 135.601 82.2015 137.127 81.5474 138.653C81.1113 139.526 80.6752 140.18 80.2391 141.052L76.0963 148.465H75.6603C75.2242 148.465 74.134 148.683 72.8257 148.901C71.0814 149.337 68.6829 149.774 66.2845 150.428C62.1417 151.518 57.9989 152.608 56.6907 153.044C56.4726 153.698 55.3824 155.879 54.2922 158.713L49.9314 172.232C49.0592 174.63 48.6232 177.247 47.969 179.427L45.3526 192.074C45.5706 192.292 45.7886 192.946 46.4428 193.818L49.2773 197.961L53.6381 204.066L52.984 210.171C52.766 212.351 52.7659 214.968 52.7659 217.802C52.7659 219.547 52.7659 221.073 52.7659 222.817C52.5479 226.524 52.984 230.013 53.202 233.065C53.202 233.938 53.4201 234.81 53.4201 235.682L54.0742 241.787L52.7659 243.531C52.3299 244.185 51.6757 245.058 51.2397 245.712L49.0592 249.418L50.3675 255.96C50.5856 256.614 50.5855 257.486 50.8036 258.14C51.0216 259.666 51.4577 261.193 51.8938 262.719L54.2922 270.568C54.5103 271.441 54.9464 272.531 55.1644 273.403C55.6005 275.147 56.0366 276.674 56.6907 278.2L62.1417 291.5L61.4876 293.463L60.3974 297.388L59.0892 303.057L63.45 311.124L68.6829 319.192C69.3371 320.064 69.7731 320.936 70.2092 321.59C71.7355 323.771 73.0438 326.169 74.7881 328.131L76.3144 330.094C80.4572 335.545 84.5999 340.56 88.3066 344.048L94.6298 350.59C95.0659 350.59 95.72 350.59 96.8102 350.808H102.479C106.404 350.808 110.329 350.808 110.329 350.808H110.547L114.69 354.296C116.216 355.387 118.396 356.913 120.577 358.439C121.885 359.311 122.975 360.183 124.283 361.056C124.938 361.492 125.592 361.928 126.028 362.364C127.118 363.236 128.208 363.89 129.298 364.544L138.456 369.559L145.215 367.815L152.411 365.416L156.553 367.161C157.426 367.379 158.298 367.815 159.17 368.251C160.914 369.123 163.095 369.995 165.275 370.649L178.358 374.792L177.922 376.1L164.839 371.958C162.659 371.304 160.478 370.431 158.516 369.559C157.644 369.123 156.772 368.687 155.899 368.469L152.193 366.943L145.433 369.341L138.02 371.085L128.426 365.853C127.336 365.198 126.246 364.326 125.156 363.672C124.501 363.236 123.847 362.8 123.411 362.364C122.103 361.492 121.013 360.62 119.705 359.747C117.524 358.221 115.562 356.913 113.817 355.605L109.893 352.334C109.021 352.334 105.532 352.334 102.261 352.334H96.5922C95.0659 352.334 93.9757 352.116 93.9757 352.116H93.7577L86.9984 345.139C83.2917 341.65 79.1489 336.635 75.0061 331.184L73.4798 329.222C71.7355 327.041 70.2092 324.861 68.6829 322.462C68.2469 321.59 67.5928 320.718 67.1567 320.064L61.9237 311.996L57.3448 303.275L59.7432 293.245L60.1794 291.718L54.9464 278.854C54.2922 277.328 53.8561 275.583 53.202 273.839C52.984 272.967 52.7659 271.877 52.3299 271.005L49.9314 263.155C49.4953 261.411 49.0592 259.884 48.8412 258.358C48.6232 257.486 48.6232 256.832 48.4051 256.178L47.0969 248.982L49.4953 244.84C49.9314 243.967 50.5855 243.095 51.0216 242.441L51.8938 241.133L51.4577 235.464C51.4577 234.592 51.2397 233.938 51.2397 233.065C51.0216 229.795 50.5855 226.306 50.8036 222.599C50.8036 220.855 50.8036 219.111 50.8036 217.584C50.8036 214.75 50.8036 211.915 51.0216 209.735L51.6757 204.066L47.751 198.397L44.9165 194.254C44.0443 193.164 43.6082 192.292 43.6082 192.292L43.3902 192.074L46.0067 178.991C47.3149 177.465 47.533 176.157 47.969 174.63Z" fill="url(#paint0_linear_314_930)"/>
<path d="M178.794 374.574L194.493 377.844C196.237 378.062 198.199 378.28 200.162 378.498C201.252 378.716 202.56 378.716 203.65 378.934C204.74 378.934 205.831 379.152 207.139 379.37C209.101 379.588 211.064 379.807 212.808 379.807H226.763L229.161 379.588L229.379 379.807C229.379 379.807 232.65 383.513 235.92 387.22C238.755 390.273 241.808 393.325 242.898 394.415L244.424 394.197C245.078 394.197 245.95 393.979 247.04 393.761C247.695 393.543 248.349 393.543 249.003 393.325C250.311 393.107 251.619 392.889 253.364 392.453C256.416 391.799 259.687 391.363 262.958 390.491L276.476 386.348C277.784 386.13 278.657 385.694 279.529 385.258C279.965 385.039 280.401 384.821 280.837 384.821L282.145 384.167L285.416 377.844L288.468 371.303H288.686C288.686 371.303 289.122 371.085 289.995 370.649L293.701 368.686C294.792 368.032 296.1 367.378 297.408 366.724C299.806 365.416 302.423 364.108 305.039 362.581L315.723 355.604C316.814 354.95 317.468 354.296 318.122 353.86C318.558 353.642 318.776 353.205 318.994 353.205L320.52 352.115L325.317 352.333L329.678 352.551L330.986 351.461C331.204 351.243 331.423 351.025 331.859 350.807C332.731 350.153 333.821 349.281 334.911 348.191C336.001 347.1 337.092 346.01 338.182 344.92C340.58 342.739 343.197 340.123 345.813 337.507L355.625 325.95C356.497 324.86 357.151 323.988 357.805 323.116C358.024 322.68 358.46 322.244 358.678 322.026L359.986 320.281L366.091 318.755L371.76 317.229C371.978 317.011 372.414 316.357 373.068 315.266L381.136 300.876C382.226 298.913 383.098 296.733 383.97 294.334C384.407 293.244 385.061 291.936 385.497 290.846C388.113 285.395 389.858 279.508 391.384 274.711C391.82 273.62 392.038 272.312 392.474 271.222C394 266.861 394.654 263.591 394.873 262.5C394.436 261.628 392.692 258.576 391.166 255.523C389.64 252.688 387.895 249.854 387.459 248.982H387.023L387.241 248.328C387.459 247.892 387.677 245.929 387.895 243.313L389.203 231.757C389.421 230.012 389.421 228.268 389.421 226.524V215.185C388.767 214.313 386.587 212.133 384.406 210.17L377.865 204.283H378.737C378.519 200.795 375.031 180.081 373.941 178.554L374.377 178.336L374.159 177.464L374.813 177.682C375.685 178.772 379.828 200.795 379.828 204.501L385.061 209.298C387.459 211.479 389.421 213.659 390.294 214.531H390.512V226.742C390.512 228.486 390.512 230.23 390.294 232.193L388.985 243.749C388.767 246.147 388.331 248.11 388.331 248.764C388.767 249.636 390.512 252.47 392.038 255.305C394 258.794 395.963 262.5 395.963 262.5L396.181 263.154L395.963 263.372C395.745 264.681 395.091 267.951 393.564 272.312C393.128 273.402 392.91 274.493 392.474 275.583C390.948 280.38 389.203 286.267 386.587 291.718C386.151 292.808 385.497 294.116 385.061 295.207C383.97 297.605 383.098 299.785 382.008 301.966L373.941 316.357C372.632 318.537 372.196 318.973 371.978 318.973L366.309 320.499L360.64 322.026L359.768 323.334C359.55 323.77 359.332 323.988 358.896 324.424C358.242 325.296 357.587 326.386 356.715 327.477L346.685 339.251C344.069 341.867 341.452 344.484 339.054 346.664C337.746 347.754 336.655 348.845 335.783 349.935C334.693 351.025 333.603 351.897 332.731 352.769C332.513 352.987 332.295 353.205 332.077 353.424L330.332 354.732L321.175 354.296L320.084 355.168C319.866 355.386 319.43 355.604 319.212 355.822C318.558 356.476 317.686 357.13 316.596 357.784L305.912 364.762C303.295 366.288 300.461 367.814 298.062 369.122C296.754 369.777 295.446 370.431 294.574 371.085L290.867 373.047C290.213 373.265 289.777 373.483 289.559 373.701L286.724 379.807L283.235 386.566L281.273 387.22C280.837 387.438 280.619 387.438 280.183 387.656C279.311 388.092 278.22 388.528 276.912 388.746L263.394 392.889C260.123 393.761 256.634 394.415 253.582 394.851C252.055 395.069 250.529 395.505 249.439 395.724C248.785 395.942 248.131 395.942 247.477 396.16C246.386 396.378 245.514 396.596 244.86 396.596L242.68 396.814L242.462 396.596C241.59 395.724 238.319 392.453 235.266 389.182C232.432 386.13 229.597 382.859 228.943 381.987L227.199 382.205H213.244C211.282 382.205 209.319 381.987 207.357 381.769C206.267 381.551 205.177 381.551 204.086 381.333C202.778 381.115 201.688 381.115 200.598 380.897C198.635 380.679 196.673 380.461 194.929 380.243L179.23 376.972L178.794 374.574Z" fill="url(#paint1_linear_314_930)"/>
<path d="M37.5033 171.577C41.21 157.186 46.0069 145.63 49.9317 137.344C57.7811 122.082 66.2848 108.781 74.1342 99.8413C75.4425 98.315 76.5327 97.0068 77.6229 95.6985C79.3672 93.5181 80.8935 91.7738 82.2018 90.4655L85.4724 87.413L87.4348 89.5934L84.1642 92.6459C83.0739 93.9542 81.5477 95.6985 79.8033 97.8789C78.7131 99.1872 77.6229 100.495 76.3147 102.022C68.6832 110.743 60.1796 123.826 52.5482 138.871C46.443 151.517 38.5935 172.231 35.3229 198.396C32.4884 221.726 34.2327 246.147 40.5559 269.041C46.6611 291.718 57.5631 313.74 71.9538 332.491C85.2543 349.935 100.953 364.543 117.088 374.791C119.923 376.972 122.976 378.716 125.81 380.242L128.208 381.551C129.517 382.205 130.825 383.077 132.133 383.731C134.314 385.039 136.494 386.129 138.674 387.22L148.268 391.362C149.14 391.798 150.231 392.235 151.103 392.671C152.847 393.543 154.591 394.197 156.336 394.633L172.471 399.648L171.599 402.483L155.464 397.468C153.719 397.031 151.757 396.159 150.013 395.287C149.14 394.851 148.268 394.415 147.178 393.979L137.584 389.836C135.404 388.746 133.223 387.656 130.825 386.347C129.517 385.693 128.208 384.821 126.9 384.167L124.502 382.859C121.449 381.115 118.397 379.588 115.562 377.19C98.9909 366.724 83.292 351.897 69.7734 334.236C55.1647 315.048 44.0445 292.808 37.9394 269.695C31.6162 246.583 29.6538 221.726 32.7064 197.96C33.5786 188.366 35.3229 179.644 37.5033 171.577Z" fill="url(#paint2_linear_314_930)"/>
<path d="M26.1646 182.698L37.5028 185.097L37.0667 187.059C37.0667 187.495 36.8486 187.931 36.8486 188.586C36.6306 189.458 36.4126 190.766 36.1945 192.074C35.9765 193.383 35.7585 195.345 35.5404 197.525C35.1043 201.668 34.6682 206.247 34.2322 211.48C33.36 230.013 35.7584 251.163 40.7734 268.825L43.3899 277.983C44.044 279.945 44.4801 281.907 45.3523 283.652L51.2394 298.26L59.961 314.831L64.5399 321.809C67.8105 327.26 71.2992 331.621 73.9156 334.891L79.1487 341.433C79.5847 342.087 80.0208 342.523 80.0208 342.523L71.7352 350.59C71.7352 350.59 71.0811 349.936 69.9909 348.628L64.7579 342.087C61.9234 338.598 58.2167 333.801 54.51 327.696L48.6229 318.538L40.3373 302.621L34.4502 288.012C33.36 285.832 32.7059 283.434 32.0517 281.035L29.4353 271.877C24.2023 252.908 21.5858 230.668 22.4579 210.608C22.894 204.939 23.3301 200.142 23.7662 196.217C23.9842 194.255 24.2023 192.292 24.4203 190.766C24.6383 188.804 25.0744 187.277 25.2925 186.187C25.2925 185.751 25.5105 185.315 25.5105 184.879L26.1646 182.698Z" fill="url(#paint3_linear_314_930)"/>
<path d="M85.4722 87.1971L94.848 78.0394L108.803 66.9193C109.893 66.2651 110.765 65.611 111.855 64.9569L123.411 57.3254C125.81 56.0172 128.208 54.7089 130.825 53.4007C132.351 52.7466 133.659 51.8744 135.186 51.2203C148.486 44.6791 169.636 36.1755 195.365 32.6868C218.913 29.4162 243.77 31.1605 267.318 37.2657C290.649 43.3708 313.107 54.2729 332.295 68.6636C353.009 84.1445 367.399 102.024 375.685 114.234C376.557 115.76 377.429 117.069 378.301 118.377C379.828 120.775 381.354 122.956 382.662 125.354L389.203 137.783C389.858 138.873 390.294 139.963 390.73 140.835L397.707 158.279L401.196 169.835L398.361 170.707L394.654 158.279L388.113 141.925C387.677 141.053 387.241 139.963 386.587 139.091L380.264 126.881C378.956 124.7 377.429 122.52 375.903 120.121C375.031 118.813 374.159 117.287 373.286 115.979C365.219 103.986 351.046 86.3249 330.55 71.062C311.799 56.8894 289.777 46.2053 266.664 40.3182C243.552 34.2131 219.131 32.6868 195.801 35.7394C170.508 39.01 149.576 47.5136 136.494 53.8368C134.968 54.709 133.659 55.3631 132.133 56.0172C129.735 57.3255 127.336 58.6337 124.938 59.9419L113.381 67.3553C112.509 68.0095 111.419 68.6636 110.547 69.3177L96.1562 80.8739L87.4346 89.3775L85.4722 87.1971Z" fill="url(#paint4_linear_314_930)"/>
<path d="M180.32 26.7997L188.824 25.0554C189.696 24.8373 190.786 24.6193 191.876 24.6193L207.793 23.093C220.004 22.4389 243.77 22.6569 269.281 29.1982C294.792 35.9574 315.506 47.5136 325.536 53.8368L338.836 62.9945C339.926 63.6487 340.58 64.3028 341.453 64.9569L348.212 70.626L340.798 79.3476L335.129 74.5507C334.911 74.3327 334.475 73.8966 334.039 73.6785C333.603 73.2425 332.949 72.8064 332.295 72.3703L319.43 63.4306C303.513 53.4007 284.108 44.8971 266.664 40.3182C249.221 35.7394 228.071 33.777 208.883 34.6492L193.403 36.1755C192.748 36.1755 192.094 36.3935 191.44 36.6116C191.004 36.6116 190.35 36.8296 189.914 36.8296L182.719 38.1378L180.32 26.7997Z" fill="url(#paint5_linear_314_930)"/>
<path d="M172.252 399.214L188.824 402.703C190.568 403.139 192.312 403.357 194.275 403.575C195.365 403.575 196.237 403.793 197.327 404.011L207.575 405.101C209.974 405.319 212.372 405.319 214.77 405.319C216.297 405.319 217.823 405.319 219.349 405.319H222.184C225.454 405.319 228.943 405.319 232.432 404.883C251.837 403.793 272.551 398.778 292.611 390.274C314.415 380.898 334.693 367.162 351.264 350.373C368.053 333.584 381.572 313.306 390.512 291.502C400.542 267.081 403.812 245.277 404.684 231.104C405.339 214.315 404.466 198.616 402.068 187.278C401.632 185.316 401.414 183.571 400.978 181.827C400.542 178.992 400.106 176.812 399.669 175.068L398.361 170.925L401.196 170.053L402.504 174.195C402.94 175.94 403.376 178.338 403.812 181.173C404.03 182.699 404.466 184.661 404.902 186.624C407.301 198.18 408.391 214.097 407.737 231.104C406.865 245.495 403.594 267.735 393.346 292.374C384.189 314.614 370.452 335.328 353.445 352.335C336.656 369.342 315.942 383.297 293.919 392.891C273.424 401.612 252.274 406.845 232.868 407.718C229.379 408.154 225.891 408.154 222.402 408.154H219.567C218.041 408.154 216.515 408.154 215.207 408.154C212.59 408.154 209.974 408.154 207.575 407.936L197.109 406.845C196.019 406.627 194.929 406.627 194.057 406.627C191.876 406.409 189.914 406.191 188.169 405.755L171.816 402.266L172.252 399.214Z" fill="url(#paint6_linear_314_930)"/>
<path d="M276.694 398.342L280.401 394.853C280.401 394.853 280.837 394.635 281.709 394.417L289.777 391.147C293.92 389.62 298.935 387.44 304.386 384.387L315.724 378.064L327.934 370.215L340.144 360.621C341.889 359.313 343.197 358.004 344.723 356.478L351.701 349.719C364.565 336.636 376.993 319.629 385.497 302.84C387.677 298.261 389.422 293.9 391.166 290.194C392.038 288.231 392.692 286.487 393.346 284.961C393.782 283.87 394.001 282.78 394.437 281.908C394.655 281.254 394.873 280.818 394.873 280.164L395.309 278.419L406.429 281.908L405.775 283.87C405.557 284.306 405.557 284.743 405.339 285.179C404.903 286.269 404.467 287.795 403.812 289.321C402.94 291.066 402.286 292.81 401.632 294.554C400.106 298.261 398.143 302.84 395.745 307.637C386.587 325.516 373.505 343.832 359.55 357.568L352.573 364.328C350.828 366.072 349.084 367.816 346.904 369.343L334.257 379.372L315.506 391.147L309.837 394.199C303.95 397.688 298.28 399.868 293.92 401.613L286.07 404.883C284.762 405.319 284.108 405.755 283.89 405.755L282.145 400.304L276.694 398.342Z" fill="url(#paint7_linear_314_930)"/>
<path d="M169.418 382.861L169.854 381.335L176.614 383.297L175.959 385.041L169.418 382.861Z" fill="url(#paint8_linear_314_930)"/>
<path d="M144.56 373.481L145.215 371.954C145.433 372.172 145.869 372.172 146.305 372.39L154.372 375.879L153.718 377.405L145.651 373.917C145.433 373.699 144.997 373.481 144.56 373.481ZM160.041 380.022L160.478 378.277L163.53 379.368L163.094 381.112L160.041 380.022Z" fill="url(#paint9_linear_314_930)"/>
<path d="M52.1119 186.406L53.8563 186.842L53.4202 188.586C53.4202 189.022 53.2022 189.676 52.9841 190.548C52.7661 191.857 52.33 193.601 52.1119 195.345C52.1119 195.781 52.1119 196.218 52.1119 196.436L50.3676 196.217C50.3676 195.781 50.3676 195.345 50.3676 195.127C50.5857 193.165 51.0217 191.421 51.2398 190.112C51.4578 189.458 51.4578 188.804 51.6759 188.368L52.1119 186.406ZM49.4954 202.759L51.2398 202.977C51.0217 204.067 51.0217 205.157 50.8037 206.247L49.0594 206.029C49.2774 204.939 49.4954 203.849 49.4954 202.759ZM48.6233 212.789H50.3676C50.3676 215.187 50.1496 217.586 50.3676 219.766C50.3676 221.728 50.3676 223.909 50.3676 225.871H48.6233C48.6233 223.691 48.6233 221.728 48.6233 219.766C48.6233 217.586 48.6233 215.187 48.6233 212.789ZM49.0594 231.104L50.8037 230.886C51.0217 234.157 51.2398 237.427 51.6759 240.698L49.9315 240.916C49.4954 237.645 49.2774 234.375 49.0594 231.104ZM51.0217 247.675L52.7661 247.457C52.9841 248.547 53.2022 249.638 53.4202 250.728L51.6759 250.946C51.2398 249.856 51.2398 248.765 51.0217 247.675ZM52.9841 257.487L54.7285 257.051C55.6006 261.412 56.9089 265.773 57.9991 269.697L56.2547 270.133C54.9465 266.209 53.8563 261.848 52.9841 257.487ZM57.781 275.148L59.5254 274.494C60.6156 277.547 61.7058 280.818 63.014 283.652L61.4877 284.306C59.9614 281.472 58.8712 278.201 57.781 275.148ZM63.8862 290.629L65.4125 289.975C65.8485 290.847 66.2846 291.72 66.7207 292.592L66.9387 292.81L65.4125 293.682L65.1944 293.246C64.7583 292.374 64.3223 291.502 63.8862 290.629ZM68.465 299.351L69.9913 298.479C72.1718 302.622 74.1341 306.328 76.5326 309.817L75.0063 310.907C72.6078 307.419 70.6454 303.712 68.465 299.351ZM77.8408 315.05L79.3671 314.178L82.2016 318.539L85.0362 322.027L83.7279 323.117L80.2393 318.539L77.8408 315.05ZM87.6527 328.569L88.9609 327.478C89.6151 328.35 90.2692 329.223 90.9233 330.095L89.6151 331.185C89.179 330.313 88.3068 329.441 87.6527 328.569ZM94.412 335.982L95.7202 334.674C96.5924 335.546 97.2465 336.418 98.1187 337.072C98.9908 337.944 99.863 338.816 100.735 339.689L103.788 342.741C104.224 343.177 104.66 343.395 105.096 343.831L104.006 345.14C103.57 344.704 103.134 344.267 102.698 343.831L99.6449 340.561C98.7728 339.689 97.9006 338.816 97.0285 337.944C95.9383 337.726 95.0661 336.854 94.412 335.982ZM107.494 348.628L108.585 347.32L112.727 350.809C113.818 351.681 114.908 352.771 116.216 353.643L115.126 354.952C113.818 353.861 112.727 352.989 111.637 352.117L107.494 348.628ZM120.577 358.876L121.667 357.35C122.539 358.004 123.411 358.44 124.066 359.094L124.284 359.312L123.193 360.839L122.975 360.621C122.103 360.185 121.449 359.53 120.577 358.876ZM128.863 364.545L129.735 363.019C131.043 363.891 131.915 364.327 133.005 364.981L141.291 369.56L140.419 371.087L132.133 366.508C131.261 366.072 129.953 365.417 128.863 364.545Z" fill="url(#paint10_linear_314_930)"/>
<path d="M54.0745 176.374L55.8188 176.81L54.5106 183.57L52.7662 183.352L54.0745 176.374Z" fill="url(#paint11_linear_314_930)"/>
<path d="M54.0743 176.376L56.2547 169.834L57.9991 170.271L55.8186 177.03L54.0743 176.376Z" fill="url(#paint12_linear_314_930)"/>
<path d="M58.2171 163.511L59.3073 160.458L61.0516 160.895L59.9614 164.165L58.2171 163.511ZM61.9238 154.135L65.4125 146.068C65.6305 145.632 65.6305 145.414 65.8485 144.978L67.3748 145.632C67.1568 145.85 67.1568 146.286 66.9388 146.722L63.4501 154.789L61.9238 154.135Z" fill="url(#paint13_linear_314_930)"/>
<path d="M68.0289 140.835L72.6078 132.55C73.0439 131.678 73.698 130.369 74.5701 129.279L76.0964 130.151C75.2243 131.46 74.7882 132.332 74.1341 133.422L69.5552 141.707L68.0289 140.835ZM78.2768 123.61L78.4949 123.392C79.149 122.52 79.5851 121.866 80.2392 120.994L81.7655 122.084C81.1114 122.956 80.6753 123.828 80.0212 124.482L79.8031 124.7L78.2768 123.61ZM83.9459 115.543C85.0361 114.234 85.9083 113.144 86.7805 112.054L90.2691 107.911L91.5774 109.001L88.0887 113.144C87.2165 114.234 86.1263 115.325 85.2542 116.633L83.9459 115.543ZM93.7578 103.986C94.1939 103.55 94.63 103.114 95.066 102.678L98.3367 99.6256C99.2088 98.7534 100.081 97.8812 100.953 97.0091C101.825 96.1369 102.479 95.4828 103.352 94.6106L104.66 95.9188C103.788 96.791 102.915 97.4451 102.261 98.3173C101.389 99.1895 100.517 100.062 99.6449 100.934L96.5923 103.986C96.1562 104.422 95.9382 104.859 95.5021 105.295L93.7578 103.986ZM108.149 90.2498C109.021 89.5957 109.893 88.7235 110.765 88.0694L111.855 89.3776C110.983 90.0317 110.111 90.6859 109.239 91.34L108.149 90.2498ZM115.998 83.9266L120.577 80.4379L124.065 78.0395L124.938 79.5658L120.577 82.4003L117.088 85.2348L115.998 83.9266ZM128.208 75.423C131.697 73.0245 135.622 70.8441 139.764 68.6637L140.637 70.19C136.494 72.3704 132.787 74.3328 129.298 76.7312L128.208 75.423ZM145.652 65.8292L146.088 65.6111C146.96 65.1751 147.832 64.739 148.704 64.3029L149.358 65.8292C148.486 66.2653 147.614 66.7013 146.742 67.1374L146.524 67.3555L145.652 65.8292ZM154.809 61.6864C157.862 60.3781 160.914 59.2879 164.185 58.1977L164.839 59.9421C161.787 61.0323 158.516 62.1225 155.681 63.4307L154.809 61.6864ZM168.982 56.6714C173.125 55.3632 177.486 54.273 181.846 53.1828L182.283 54.9271C177.922 55.7993 173.561 57.1075 169.636 58.1977L168.982 56.6714ZM188.388 51.8745C189.478 51.6565 190.568 51.4385 191.658 51.2204L191.876 52.9647C190.786 53.1828 189.696 53.4008 188.606 53.6189L188.388 51.8745ZM198.2 50.3483C201.47 49.9122 204.959 49.6941 208.229 49.4761L208.447 51.2204C205.177 51.4385 201.906 51.6565 198.636 52.0926L198.2 50.3483ZM213.026 49.2581C215.207 49.2581 217.169 49.2581 219.132 49.2581C221.53 49.2581 223.71 49.2581 226.327 49.2581V51.0024C223.928 51.0024 221.53 51.0024 219.35 51.0024C217.387 51.0024 215.207 51.0024 213.244 51.0024L213.026 49.2581ZM233.086 49.6941C234.176 49.6941 235.267 49.9122 236.357 50.1302L236.139 51.8745C235.048 51.6565 233.958 51.6565 232.868 51.4385L233.086 49.6941ZM242.898 50.5663C243.334 50.5663 243.77 50.5663 243.988 50.5663C245.951 50.7843 247.695 51.2204 249.003 51.4385C249.657 51.6565 250.311 51.6565 250.747 51.8745L252.492 52.3106L252.056 54.055L250.311 53.6189C249.875 53.6189 249.221 53.4008 248.349 53.1828C247.041 52.9647 245.296 52.5287 243.552 52.3106C243.116 52.3106 242.68 52.3106 242.462 52.3106L242.898 50.5663Z" fill="url(#paint14_linear_314_930)"/>
<path d="M255.98 52.9652L262.739 54.4915L262.303 56.2358L255.544 54.7095L255.98 52.9652Z" fill="url(#paint15_linear_314_930)"/>
<path d="M262.304 56.2327L262.74 54.4884L269.499 56.6688L268.845 58.1951L262.304 56.2327Z" fill="url(#paint16_linear_314_930)"/>
<path d="M275.168 60.3763L275.604 58.632L278.657 59.7222L278.221 61.4665L275.168 60.3763ZM284.326 63.8649L284.98 62.3387L293.047 65.8273C293.484 66.0454 293.702 66.0454 294.138 66.2634L293.484 67.7897C293.265 67.5717 292.829 67.5716 292.393 67.3536L284.326 63.8649Z" fill="url(#paint17_linear_314_930)"/>
<path d="M297.626 69.9695L298.498 68.4432L306.784 73.0221C307.656 73.4582 308.965 74.1123 310.055 74.9845L309.182 76.5108C307.874 75.6386 307.002 75.2025 305.912 74.5484L297.626 69.9695ZM314.634 80.2175L315.724 78.6912L315.942 78.9092C316.814 79.5633 317.468 79.9994 318.34 80.6535L317.25 82.1798C316.378 81.5257 315.506 81.0896 314.852 80.4355L314.634 80.2175ZM322.701 85.8865L323.791 84.5783C325.1 85.6685 326.19 86.5407 327.28 87.4128L331.423 90.9015L330.333 92.2097L326.19 88.7211C324.881 87.6309 323.791 86.7587 322.701 85.8865ZM334.039 95.4804L335.129 94.1721C335.566 94.6082 336.002 95.0443 336.438 95.4804L339.49 98.751C340.362 99.6231 341.235 100.495 342.107 101.367C342.979 102.24 343.633 103.112 344.505 103.766L343.197 105.074C342.325 104.202 341.671 103.33 340.798 102.676C339.926 101.804 339.054 100.931 338.182 100.059L335.129 97.0066C334.911 96.1345 334.475 95.6984 334.039 95.4804ZM347.558 109.653L348.866 108.563C349.52 109.435 350.392 110.307 351.046 111.179L349.738 112.27C349.084 111.397 348.43 110.525 347.558 109.653ZM353.881 117.284L355.189 116.194L358.678 120.773L361.076 124.262L359.55 125.134L356.715 120.773L353.881 117.284ZM362.167 129.495L363.693 128.405C366.091 131.893 368.272 135.818 370.452 139.961L368.926 140.833C366.745 136.69 364.783 132.983 362.167 129.495ZM371.978 146.938L373.505 146.066L373.723 146.502C374.159 147.374 374.595 148.246 375.031 149.118L373.505 149.773C373.069 148.9 372.633 148.028 372.196 147.156L371.978 146.938ZM375.903 155.878L377.429 155.224C378.738 158.276 379.828 161.329 380.918 164.599L379.174 165.254C378.302 161.983 377.211 158.93 375.903 155.878ZM380.918 169.832L382.662 169.396C383.971 173.539 385.061 177.9 386.151 182.261L384.407 182.697C383.316 178.118 382.226 173.975 380.918 169.832ZM385.497 189.02L387.241 188.802C387.459 189.892 387.677 190.982 387.895 192.073L386.151 192.291C385.933 191.2 385.715 190.11 385.497 189.02ZM387.023 198.832L388.768 198.614C389.204 201.884 389.422 205.373 389.64 208.644L387.895 208.862C387.895 205.373 387.459 202.102 387.023 198.832ZM388.331 213.441H390.076C390.076 215.621 390.076 217.583 390.076 219.764C390.076 222.162 390.076 224.343 390.076 226.959H388.331C388.331 224.561 388.549 222.162 388.331 219.982C388.331 217.583 388.331 215.621 388.331 213.441ZM387.895 233.282L389.64 233.5C389.422 234.591 389.422 235.681 389.204 236.771L387.459 236.553C387.677 235.463 387.677 234.373 387.895 233.282ZM386.805 243.094L388.55 243.312C388.55 243.748 388.55 244.184 388.55 244.403C388.331 246.365 387.895 248.109 387.677 249.417C387.459 250.072 387.459 250.726 387.241 251.162L386.805 252.906L385.061 252.47L385.497 250.726C385.497 250.29 385.715 249.636 385.933 248.763C386.151 247.455 386.587 245.711 386.805 243.966C386.805 243.966 386.805 243.53 386.805 243.094Z" fill="url(#paint18_linear_314_930)"/>
<path d="M384.406 255.961L386.15 256.179L384.624 263.156L382.88 262.72L384.406 255.961Z" fill="url(#paint19_linear_314_930)"/>
<path d="M380.919 269.261L383.099 262.72L384.625 263.156L382.663 269.915L380.919 269.261Z" fill="url(#paint20_linear_314_930)"/>
<path d="M371.54 293.897C371.758 293.679 371.758 293.243 371.977 292.807L375.465 284.74L376.991 285.394L373.503 293.461C373.285 293.897 373.285 294.115 373.067 294.551L371.54 293.897ZM377.864 278.634L378.954 275.582L380.698 276.018L379.608 279.071L377.864 278.634Z" fill="url(#paint21_linear_314_930)"/>
<path d="M186.426 385.477L188.17 385.913C188.606 385.913 189.26 386.131 190.132 386.349C191.441 386.567 193.185 387.003 194.929 387.221C195.365 387.221 195.801 387.221 196.019 387.221L195.801 388.965C195.365 388.965 194.929 388.965 194.711 388.965C192.749 388.747 191.005 388.311 189.696 388.093C189.042 387.875 188.388 387.875 187.952 387.657L186.208 387.221L186.426 385.477ZM202.561 387.875C203.651 388.093 204.741 388.093 205.831 388.311L205.613 390.055C204.523 389.837 203.433 389.837 202.343 389.619L202.561 387.875ZM212.591 388.747C214.989 388.747 217.388 388.965 219.568 388.747C221.53 388.747 223.711 388.747 225.673 388.747V390.492C223.493 390.492 221.53 390.492 219.568 390.492C217.17 390.492 214.989 390.492 212.373 390.492L212.591 388.747ZM230.688 388.311C233.959 388.093 237.229 387.875 240.5 387.439L240.718 389.183C237.447 389.619 233.959 389.837 230.688 390.055V388.311ZM247.041 386.567C248.131 386.349 249.222 386.131 250.312 385.913L250.53 387.657C249.44 387.875 248.349 388.093 247.259 388.311L247.041 386.567ZM256.635 384.604C260.996 383.732 265.357 382.424 269.281 381.334L269.717 383.078C265.575 384.386 261.214 385.477 256.853 386.567L256.635 384.604ZM274.078 379.807C277.131 378.717 280.401 377.627 283.236 376.319L283.89 377.845C280.838 379.153 277.785 380.244 274.514 381.334L274.078 379.807ZM289.341 373.702C290.213 373.266 291.085 372.83 291.958 372.394L292.176 372.176L293.048 373.702L292.612 373.92C291.74 374.356 290.867 374.793 289.995 375.229L289.341 373.702ZM298.281 369.123C302.424 366.943 306.13 364.981 309.619 362.582L310.709 364.109C307.221 366.507 303.296 368.687 299.153 370.868L298.281 369.123ZM313.762 359.966L318.123 357.131L321.611 354.297L322.701 355.605L318.123 359.094L314.634 361.492L313.762 359.966ZM327.062 350.154C327.934 349.5 328.807 348.846 329.679 348.191L330.769 349.5C329.897 350.154 329.025 351.026 328.152 351.68L327.062 350.154ZM334.476 343.613C335.348 342.74 336.22 342.086 336.874 341.214C337.746 340.342 338.618 339.47 339.491 338.598L342.543 335.545C342.979 335.109 343.197 334.673 343.633 334.237L344.942 335.327C344.506 335.763 344.07 336.199 343.633 336.635L340.363 339.688C339.491 340.56 338.618 341.432 337.746 342.304C336.874 343.177 336.22 343.831 335.348 344.703L334.476 343.613ZM346.904 330.53L350.393 326.387C351.265 325.297 352.355 324.207 353.227 322.899L354.535 323.989C353.445 325.297 352.573 326.387 351.701 327.478L348.212 331.62L346.904 330.53ZM357.152 317.666C357.806 316.794 358.242 315.921 358.896 315.267L359.114 315.049L360.641 316.139L360.423 316.357C359.768 317.23 359.332 317.884 358.678 318.756L357.152 317.666ZM362.821 309.38C363.693 308.072 364.129 307.2 364.783 306.11L369.362 297.824L370.889 298.696L366.31 306.982C365.874 307.854 365.22 309.162 364.347 310.252L362.821 309.38Z" fill="url(#paint22_linear_314_930)"/>
<path d="M176.396 383.297L183.373 384.824L182.937 386.568L176.178 385.042L176.396 383.297Z" fill="url(#paint23_linear_314_930)"/>
<path d="M19.4053 172.667L21.3677 173.103L19.8414 180.734L17.879 180.298L19.4053 172.667ZM16.3528 187.929L18.3151 188.366V188.802L17.661 195.997L15.6986 195.779L16.3528 187.929ZM14.6084 203.192L16.5708 203.41L16.1347 206.681C15.9167 207.989 15.9167 209.298 15.9167 210.824H13.9543C13.9543 209.079 13.9543 207.553 14.1723 206.463L14.6084 203.192ZM13.9543 218.673H15.9167V226.305H13.9543V218.673ZM14.3904 234.372L16.3528 234.154L17.0069 241.786L15.0445 242.004L14.3904 234.372ZM15.9167 249.635L17.879 249.417C18.0971 250.507 18.3151 251.38 18.5332 252.47C18.7512 253.342 18.7512 253.996 18.9692 254.868L19.4053 257.049L17.443 257.485L17.0069 255.304C16.7888 254.432 16.7888 253.778 16.5708 252.906C16.3528 251.816 16.1347 250.725 15.9167 249.635ZM18.7512 264.898L20.7136 264.462L21.3677 268.387C21.5857 269.477 22.0218 270.785 22.2399 271.875L20.2775 272.311C19.8414 271.003 19.6234 269.913 19.1873 268.605L18.7512 264.898ZM22.894 279.943L24.6383 279.289C25.5105 281.687 26.1646 284.086 27.0368 286.484L25.2925 287.138C24.4203 284.74 23.5481 282.341 22.894 279.943ZM27.9089 294.552L29.6533 293.898C30.5254 296.296 31.6156 298.694 32.4878 301.093L30.7435 301.965C29.8713 299.131 28.9991 296.95 27.9089 294.552ZM34.2321 308.724L35.9765 307.852C37.0667 310.251 38.1569 312.431 39.4651 314.829L37.7208 315.702C36.4125 313.303 35.3223 310.905 34.2321 308.724ZM41.2094 322.461L42.9538 321.371L43.6079 322.461C44.6981 324.205 45.7883 326.168 47.0966 327.912L45.5703 329.002C44.48 327.258 43.1718 325.295 42.0816 323.551L41.2094 322.461ZM49.495 335.543L51.0213 334.453C52.5476 336.634 54.0739 338.596 55.6002 340.776L54.0739 341.867C52.5476 339.686 51.0213 337.724 49.495 335.543ZM58.8708 347.972L60.3971 346.663C61.9233 348.626 63.6677 350.588 65.194 352.551L63.6677 353.859C62.1414 351.896 60.3971 349.934 58.8708 347.972ZM68.9007 359.746L70.427 358.438C72.1713 360.4 73.9156 362.144 75.6599 364.107L74.3517 365.415C72.3893 363.453 70.645 361.708 68.9007 359.746ZM79.8027 370.866L81.111 369.34L86.9981 374.355L85.6898 375.881L79.8027 370.866ZM91.577 380.678L92.8852 379.152C93.7574 380.024 94.8476 380.678 95.7197 381.55L98.9903 383.73L97.9001 385.257L94.6295 383.076C93.5393 382.422 92.4491 381.55 91.577 380.678ZM104.005 389.836L105.095 388.309L111.419 392.67L110.547 394.415L109.456 393.76L104.005 389.836ZM117.306 398.121L118.178 396.377L121.449 398.121C122.539 398.775 123.847 399.429 124.937 400.084L124.065 401.828C122.975 401.174 121.885 400.52 120.576 399.866L117.306 398.121ZM131.042 405.317L131.915 403.572L138.892 406.625L138.02 408.369L131.042 405.317ZM145.215 411.422L145.869 409.677L147.832 410.55L153.065 412.294L152.41 414.038L146.959 412.294L145.215 411.422ZM159.824 416.437L160.478 414.692L167.891 417.091L167.237 418.835L159.824 416.437Z" fill="url(#paint24_linear_314_930)"/>
<path d="M20.4957 167.653L22.8942 160.239L24.6385 160.894L22.24 168.307L20.4957 167.653ZM25.0746 152.826L26.8189 147.375L27.6911 145.413L29.4354 146.285L28.5632 148.247L26.8189 153.48L25.0746 152.826ZM30.7437 138.435L33.7962 131.458L35.5406 132.33L32.488 139.307L30.7437 138.435ZM37.2849 124.263C37.939 123.172 38.5931 122.082 39.2472 120.774L40.9916 117.503L42.7359 118.376L40.9916 121.646C40.3375 122.736 39.6833 124.045 39.0292 125.135L37.2849 124.263ZM44.9163 110.962L45.5704 109.872L49.2772 104.421L50.8034 105.511L46.4426 111.834L44.9163 110.962ZM53.638 98.0977L55.8184 94.8271C56.6906 93.7368 57.3447 92.8647 58.2168 91.7745L59.7431 93.0827C58.8709 93.9549 58.2168 95.0451 57.3447 95.9173L55.1643 99.1879L53.638 98.0977ZM63.4498 86.1054L68.4648 80.2183L69.9911 81.5266L64.9761 87.4137L63.4498 86.1054ZM73.9158 74.5492C75.6601 72.8049 77.6225 71.0606 79.5849 69.3162L80.8931 70.8425C78.9308 72.5869 77.1864 74.3312 75.224 76.0755L73.9158 74.5492ZM85.2539 64.0833C87.2163 62.3389 89.1787 60.8126 91.1411 59.0683L92.4493 60.5946C90.4869 62.1209 88.5245 63.8652 86.5622 65.3915L85.2539 64.0833ZM97.4642 54.4894C99.4266 52.9632 101.607 51.4369 103.787 49.9106L104.878 51.4369C102.697 52.9632 100.735 54.4895 98.5544 56.0157L97.4642 54.4894ZM110.111 45.7678C111.855 44.6776 113.817 43.3693 115.562 42.2791L116.652 41.625L117.742 43.3693L116.652 44.0235C114.908 45.1137 112.945 46.2039 111.201 47.5121L110.111 45.7678ZM123.629 37.9183C126.028 36.8281 128.208 35.5199 130.606 34.4297L131.479 36.174C129.08 37.2642 126.9 38.3544 124.501 39.6627L123.629 37.9183ZM137.584 31.3771C139.982 30.2869 142.381 29.4147 144.779 28.3245L145.433 30.0688C143.035 30.941 140.636 32.0312 138.238 32.9034L137.584 31.3771ZM151.975 25.708C154.373 24.8359 156.771 23.9637 159.388 23.3096L160.042 25.0539C157.644 25.9261 155.245 26.5802 152.847 27.4523L151.975 25.708ZM166.801 20.9111C168.11 20.475 169.2 20.257 170.508 19.8209L174.433 19.1668L174.869 21.1292L170.944 21.7833C169.854 22.0013 168.546 22.4374 167.455 22.6554L166.801 20.9111ZM181.846 17.8585L184.027 17.4225C184.899 17.2044 185.553 17.2044 186.425 16.9864C187.515 16.7683 188.387 16.5503 189.478 16.3322L189.696 18.2946C188.605 18.5127 187.733 18.7307 186.643 18.9487C185.771 19.1668 185.117 19.1668 184.245 19.3848L182.064 19.8209L181.846 17.8585ZM197.327 15.4601V16.3322V15.4601L204.959 14.806L205.177 16.7683L197.545 17.4225L197.327 15.4601ZM212.808 14.3699H220.439V16.3322H212.808V14.3699ZM228.071 14.3699C229.815 14.3699 231.342 14.3699 232.432 14.5879L235.702 15.024L235.484 16.9864L232.214 16.5503C230.905 16.3322 229.597 16.3322 228.071 16.3322V14.3699ZM243.552 15.6781L251.401 16.5503L250.965 18.5127H250.529L243.334 17.8585L243.552 15.6781ZM258.815 18.2946L266.446 19.8209L266.01 21.7833L258.379 20.257L258.815 18.2946Z" fill="url(#paint25_linear_314_930)"/>
<path d="M271.025 22.6544L271.679 20.91L279.093 23.3085L278.438 25.0528L271.025 22.6544ZM285.852 27.4513L286.506 25.7069L291.957 27.4513L293.919 28.3234L293.265 30.0678L291.303 29.1956L285.852 27.4513ZM300.024 32.9023L300.679 31.158L307.656 34.2105L306.784 35.9549L300.024 32.9023ZM313.761 39.4435L314.633 37.6992C315.723 38.3533 316.814 39.0075 318.122 39.6616L321.392 41.4059L320.52 43.1502L317.25 41.4059C316.16 40.7518 315.069 40.0977 313.761 39.4435ZM327.28 46.8569L328.152 45.1126L329.242 45.7667L334.693 49.4734L333.603 50.9997L327.28 46.8569ZM339.926 55.5786L341.016 54.0523L344.287 56.2327C345.377 57.1049 346.249 57.759 347.339 58.6312L346.031 60.1575C345.159 59.2853 344.069 58.6311 343.197 57.759L339.926 55.5786ZM351.918 65.1724L353.227 63.6461L359.114 68.661L357.805 70.1873L351.918 65.1724ZM363.256 75.6384L364.565 74.3301C366.309 76.0745 368.053 78.0368 369.798 79.9992L368.271 81.3074C366.745 79.3451 365.001 77.3827 363.256 75.6384ZM373.504 86.9765L375.031 85.6683C376.775 87.6306 378.301 89.593 380.046 91.5554L378.519 92.8636C376.775 90.9013 375.249 88.9389 373.504 86.9765ZM383.098 98.9688L384.624 97.8786C386.151 99.8409 387.677 102.021 389.203 104.202L387.677 105.292C386.151 103.112 384.624 100.931 383.098 98.9688ZM391.82 111.615L393.346 110.525C394.436 112.269 395.745 114.232 396.835 115.976L397.489 117.066L395.745 118.156L395.09 117.066C394.218 115.104 393.128 113.359 391.82 111.615ZM399.451 124.916L401.196 124.044C402.286 126.442 403.594 128.622 404.684 131.021L402.94 131.893C401.85 129.495 400.76 127.096 399.451 124.916ZM405.992 138.652L407.737 137.998C408.827 140.397 409.699 142.795 410.571 145.194L408.827 145.848C408.173 143.449 407.083 141.051 405.992 138.652ZM411.662 153.043L413.406 152.389C414.278 154.787 415.15 157.186 415.804 159.802L414.06 160.456C413.406 157.84 412.534 155.441 411.662 153.043ZM416.24 167.652L417.985 167.216C418.421 168.524 418.639 169.614 419.075 170.922L419.947 174.847L417.985 175.283L417.331 171.358C416.895 170.05 416.676 168.96 416.24 167.652ZM419.511 182.697L421.473 182.26L421.909 184.441C422.128 185.313 422.128 185.967 422.346 186.839C422.564 187.93 422.782 188.802 423 189.892L421.037 190.11C420.819 189.02 420.601 188.148 420.383 187.057C420.165 186.185 420.165 185.531 419.947 184.659L419.511 182.697ZM421.691 197.959L423.654 197.741L424.308 205.373L422.346 205.591L421.691 197.959ZM423 213.004H424.962V220.636H423V213.004ZM423 228.485H424.962C424.962 230.23 424.962 231.756 424.744 232.846L424.308 236.117L422.346 235.899L422.782 232.628C422.782 231.538 423 230.23 423 228.485ZM421.473 243.748L423.436 243.966L422.564 251.816L420.601 251.38V250.943L421.473 243.748ZM419.075 258.793L421.037 259.229L419.511 266.86L417.549 266.424L419.075 258.793Z" fill="url(#paint26_linear_314_930)"/>
<path d="M172.688 417.964L180.32 419.491L179.884 421.453L172.252 419.927L172.688 417.964ZM187.951 421.017H188.387L195.583 421.671L195.365 423.633L187.515 422.761L187.951 421.017ZM202.996 422.761L206.267 423.197C207.575 423.415 208.883 423.415 210.41 423.415V425.378C208.665 425.378 207.139 425.378 206.049 425.16L202.778 424.724L202.996 422.761ZM218.477 423.415H226.109V425.378H218.477V423.415ZM233.74 422.979L241.371 422.325L241.589 424.288V423.415V424.288L233.958 424.942L233.74 422.979ZM249.003 421.453C250.093 421.235 250.965 421.017 252.055 420.799C252.928 420.581 253.582 420.581 254.454 420.363L256.634 419.927L257.07 421.889L254.89 422.325C254.018 422.543 253.364 422.543 252.491 422.761C251.401 422.979 250.529 423.197 249.439 423.415L249.003 421.453ZM264.048 418.4L267.972 417.746C269.063 417.528 270.371 417.092 271.461 416.874L271.897 418.618C270.589 419.055 269.499 419.273 268.19 419.709L264.266 420.581L264.048 418.4ZM278.874 414.476C281.273 413.604 283.671 412.949 286.07 412.077L286.724 413.822C284.325 414.694 281.927 415.566 279.311 416.22L278.874 414.476ZM293.265 409.461C295.664 408.589 298.062 407.498 300.46 406.626L301.115 408.371C298.716 409.461 296.318 410.333 293.919 411.205L293.265 409.461ZM307.438 403.356C309.836 402.265 312.017 401.175 314.415 399.867L315.287 401.611C312.889 402.701 310.708 404.01 308.31 405.1L307.438 403.356ZM321.174 396.378L322.265 395.724C324.009 394.634 325.971 393.544 327.716 392.235L328.806 393.762C327.062 394.852 325.099 396.16 323.355 397.25L322.265 397.905L321.174 396.378ZM334.039 388.093C336.219 386.566 338.182 385.04 340.362 383.514L341.452 385.04C339.49 386.566 337.31 388.093 335.129 389.619L334.039 388.093ZM346.249 378.935C348.212 377.409 350.174 375.664 352.136 374.138L353.445 375.664C351.482 377.409 349.52 378.935 347.557 380.679L346.249 378.935ZM358.023 368.905C359.986 367.161 361.73 365.416 363.692 363.672L365.001 364.98C363.256 366.725 361.294 368.469 359.332 370.213L358.023 368.905ZM368.925 358.221L373.94 352.334L375.467 353.642L370.452 359.529L368.925 358.221ZM378.955 346.447C379.827 345.575 380.482 344.484 381.354 343.612L383.534 340.342L385.061 341.432L382.88 344.703C382.008 345.793 381.354 346.665 380.482 347.755L378.955 346.447ZM387.895 334.018L392.256 327.695L394 328.567L393.346 329.658L389.639 335.109L387.895 334.018ZM395.963 320.936L397.707 317.665C398.361 316.575 399.015 315.267 399.669 314.177L401.414 315.049C400.759 316.139 400.105 317.229 399.451 318.538L397.707 321.808L395.963 320.936ZM403.158 307.417L406.21 300.44L407.955 301.312L404.902 308.29L403.158 307.417ZM409.263 293.245L410.135 291.282L411.88 286.049L413.624 286.704L411.88 292.155L411.007 294.117L409.263 293.245ZM414.06 278.854L416.458 271.441L418.203 272.095L415.804 279.508L414.06 278.854Z" fill="url(#paint27_linear_314_930)"/>
<path d="M38.5936 343.395C38.5936 342.959 38.8116 342.741 39.2477 342.522C39.6838 342.304 39.9019 342.304 40.3379 342.304C40.774 342.304 40.992 342.522 41.2101 342.959L42.0823 344.267C42.3003 344.485 42.3003 344.703 42.5183 344.921C42.7364 345.357 43.1725 345.793 43.3905 346.229C43.8266 346.883 43.6085 347.755 42.9544 348.192C42.3003 348.628 41.4281 348.41 40.9921 347.755C40.556 347.101 40.3379 346.665 39.9019 346.229C39.6838 346.011 39.6838 345.793 39.4658 345.575L38.5936 344.267C38.5936 344.267 38.5936 343.831 38.5936 343.395ZM60.3977 369.996C60.3977 369.778 60.6157 369.56 60.8338 369.342C61.0518 369.124 61.4879 368.905 61.924 368.905C62.3601 368.905 62.5781 369.124 63.0142 369.342C63.4503 369.778 63.4503 370.868 63.0142 371.304C62.3601 371.958 61.4879 371.74 61.0518 371.304C60.3977 371.086 60.3977 370.432 60.3977 369.996ZM88.0889 394.634C88.0889 394.416 88.307 394.416 88.307 394.198C88.525 393.98 88.9611 393.762 89.1791 393.544C89.6152 393.544 89.8333 393.544 90.2693 393.762C90.7054 393.98 90.9235 394.198 91.3595 394.416L102.48 402.266C104.006 403.574 105.968 404.446 107.713 405.536H107.931C109.675 406.627 111.419 407.499 113.164 408.589L113.6 408.807C114.908 409.461 116.216 410.333 117.524 410.987C119.923 412.296 122.103 413.604 124.066 414.476C126.464 415.566 128.863 416.438 131.043 417.529L134.75 419.055C137.584 420.363 140.419 421.453 142.599 422.544C144.125 423.198 145.652 423.634 147.178 424.07C148.05 424.288 148.704 424.506 149.358 424.724C153.065 426.032 155.246 426.686 155.246 426.686C155.9 426.904 156.336 427.559 156.118 428.431C155.9 429.303 155.028 429.521 154.373 429.303C154.373 429.303 152.193 428.649 148.486 427.34C147.832 427.122 147.178 426.904 146.306 426.686C144.998 426.25 143.253 425.814 141.509 425.16C139.765 424.506 137.802 423.634 135.84 422.762L122.757 417.093C120.359 416.002 118.179 414.694 115.78 413.386C114.472 412.732 113.164 411.86 111.855 411.205C110.765 410.551 109.893 410.115 108.803 409.461L105.968 407.935C104.224 406.845 102.262 405.972 100.299 404.446C97.6827 402.484 94.8482 400.739 92.2317 398.777L89.1791 396.597C88.743 396.379 88.525 396.161 88.0889 395.943C88.0889 395.725 87.8709 395.07 88.0889 394.634Z" fill="url(#paint28_linear_314_930)"/>
<path d="M7.1953 164.165C12.2102 145.195 19.6236 127.098 29.2174 110.309C29.4355 110.091 29.6535 109.654 30.0896 109.654C30.5257 109.654 30.9618 109.654 31.1798 109.872C31.8339 110.309 32.052 111.181 31.6159 111.835C22.0221 128.406 14.6087 146.285 9.81179 165.037V165.255C8.72158 169.616 7.63139 174.195 6.75923 178.774V178.992C6.75923 179.428 6.54117 179.864 6.54117 180.3C6.32313 181.172 5.669 181.608 4.79684 181.39C4.36075 181.39 4.14273 181.172 3.92468 180.736C3.70664 180.518 3.70663 180.082 3.70663 179.646C3.70663 179.21 3.92468 178.556 3.92468 178.119C4.79685 173.541 5.88705 168.744 7.1953 164.165ZM2.61643 186.187C2.83447 185.533 3.4886 184.879 4.36076 185.097C5.23292 185.315 5.66901 185.969 5.45097 186.841C5.23292 187.495 4.57881 188.149 3.92468 187.931C3.05252 187.931 2.39838 187.277 2.61643 186.187C2.61643 186.405 2.61643 186.187 2.61643 186.187ZM-6.10352e-05 216.277C0.21798 215.623 0.872117 215.186 1.3082 215.186C1.74428 215.186 1.96232 215.405 2.3984 215.623C2.61645 215.841 2.83448 216.277 2.83448 216.713C2.83448 217.585 2.18036 218.239 1.3082 218.239C0.436034 218.239 -6.10352e-05 217.585 -6.10352e-05 216.713C-6.10352e-05 216.495 -6.10352e-05 216.495 -6.10352e-05 216.277ZM2.61643 253.126C2.83447 252.472 3.27055 252.253 3.70663 252.035C4.14271 252.035 4.36075 252.035 4.79684 252.253C5.01488 252.471 5.23292 252.908 5.45097 253.126C5.66901 254.216 5.88704 255.306 5.88704 256.614C9.15766 277.982 16.135 294.99 21.1499 307.418L22.0221 309.816C23.9845 313.741 25.7288 317.23 27.2551 319.846C27.6912 320.718 28.3453 321.809 28.7814 322.681C28.9994 323.335 28.7813 324.207 28.1272 324.643C27.4731 325.079 26.6009 324.643 26.1649 323.989C25.7288 323.117 25.2927 322.245 24.8566 321.373C23.3303 318.538 21.586 315.267 19.6236 311.125C19.1876 310.252 18.9695 309.38 18.5334 308.726C13.5185 296.298 6.32312 279.291 3.0525 257.486C2.83446 256.396 2.61645 255.088 2.3984 253.998C2.61645 253.562 2.61643 253.344 2.61643 253.126ZM50.1494 80.2189C50.1494 80.0008 50.3674 79.7828 50.3674 79.5648C50.5855 79.3467 51.0215 79.1287 51.2396 79.1287C51.6757 79.1287 52.1118 79.1287 52.3298 79.3467C52.9839 79.7828 52.9839 80.873 52.5478 81.3091C52.3298 81.5271 51.8937 81.7452 51.6757 81.7452C51.2396 81.7452 50.8035 81.7452 50.5855 81.5271C50.1494 81.3091 49.9313 80.873 50.1494 80.2189ZM71.0813 58.4148C71.0813 58.1967 71.2994 57.9787 71.5174 57.7606C72.1715 57.3245 73.0437 57.3245 73.4798 57.7606C73.9159 58.4147 73.9159 59.2869 73.4798 59.723C72.8256 60.1591 71.9535 60.1591 71.5174 59.723C71.0813 59.2869 70.8633 58.8508 71.0813 58.4148ZM76.0963 54.0539C76.0963 53.8359 76.3143 53.6178 76.5324 53.1818C85.472 45.3323 95.2839 38.573 105.096 32.4678C115.998 25.7086 127.772 19.8214 139.982 15.2426C140.418 15.0245 140.636 15.0245 141.073 15.2426C141.509 15.4606 141.727 15.6787 141.727 16.1147C141.945 16.7689 141.727 17.641 140.854 18.0771C128.862 22.656 117.306 28.5431 106.404 35.0843C96.5921 40.9714 87.2163 47.9488 78.2767 55.5802C78.0586 55.7983 77.6225 56.0163 77.1865 55.7983C76.7504 55.7983 76.5323 55.5802 76.0963 55.3622C76.0963 54.9261 75.8782 54.49 76.0963 54.0539ZM29.2174 328.786C29.2174 328.35 29.6535 328.132 29.8716 327.914C30.5257 327.478 31.3979 327.914 31.8339 328.568C32.27 329.222 31.8339 330.094 31.1798 330.53C30.5257 330.966 29.6535 330.53 29.2174 329.876C29.2174 329.44 29.2174 329.222 29.2174 328.786ZM174.651 5.64876C174.869 5.21268 175.305 4.77659 175.741 4.55855C176.613 4.34051 177.267 4.99463 177.485 5.64876C177.703 6.52092 177.049 7.17505 176.395 7.39309C175.523 7.61113 174.869 6.957 174.651 6.30288C174.433 6.30288 174.651 6.08484 174.651 5.64876ZM204.522 1.72402C204.74 1.06989 205.177 0.633809 205.831 0.633809C206.267 0.633809 206.703 0.633806 206.921 0.851847C207.139 1.06989 207.357 1.50597 207.357 1.72402C207.357 2.59618 206.703 3.25031 206.049 3.25031C205.613 3.25031 205.395 3.03226 204.959 2.81422C204.74 2.59618 204.522 2.1601 204.522 1.72402C204.522 1.94206 204.522 1.94206 204.522 1.72402ZM211.282 1.50598C211.5 0.851854 211.936 0.415771 212.808 0.415771C214.988 0.415771 217.169 0.415771 219.349 0.415771H223.928C224.582 0.415771 225.018 0.415771 225.672 0.415771C229.161 0.415771 232.214 0.415765 235.266 0.851847L250.747 2.59618C252.71 2.81423 254.236 3.03227 255.108 3.25031L255.762 3.46834C256.198 3.68639 256.416 3.68639 256.634 3.68639C257.07 3.68639 257.288 3.90443 257.506 4.34051C257.724 4.55855 257.724 4.99464 257.724 5.43072C257.506 6.30289 256.852 6.73897 255.98 6.52093C255.98 6.52093 255.544 6.52092 254.454 6.30288C253.582 6.08484 252.273 5.8668 250.529 5.64876C247.477 5.43072 243.552 4.99464 238.319 4.34051L234.83 3.90443C231.996 3.46835 228.943 3.46834 225.454 3.46834H221.53C218.695 3.46834 215.861 3.46834 212.59 3.46834C211.718 3.46834 211.064 2.81422 211.282 1.94205C211.282 1.72401 211.282 1.50598 211.282 1.50598Z" fill="url(#paint29_linear_314_930)"/>
<path d="M282.363 11.0993C282.582 10.2271 283.454 9.79101 284.108 10.0091C284.108 10.0091 284.326 10.0091 284.762 10.2271L290.213 11.9714C290.867 12.1895 291.521 12.4075 292.393 12.6256C293.92 13.0616 295.446 13.4977 297.19 14.1518C299.807 15.242 302.641 16.5503 305.694 17.8585C307.438 18.5127 309.183 19.3848 310.927 20.257L315.724 22.4374C318.122 23.5276 320.303 24.8359 322.701 26.1441C324.009 26.7982 325.318 27.6704 326.626 28.3245C328.588 29.4147 330.333 30.5049 332.295 31.5951L332.513 31.8132C334.257 32.9034 336.22 33.7756 338.182 35.3018L349.302 42.9333C349.738 43.1513 349.956 43.3694 350.392 43.5874C351.046 44.0235 351.264 44.8956 350.828 45.5498C350.392 46.2039 349.52 46.4219 348.866 45.9859C348.43 45.7678 348.212 45.5498 347.776 45.3317L347.122 44.8957C343.633 42.4972 340.144 39.8807 336.438 37.4823C334.911 36.174 332.949 35.3018 330.987 34.2116H330.769C329.678 33.5575 328.806 33.1214 327.716 32.4673L325.1 30.941C323.791 30.0689 322.483 29.4147 320.957 28.7606C318.558 27.4524 316.378 26.1441 314.416 25.2719L303.731 20.6931C300.897 19.3848 298.062 18.2946 295.664 17.2044C294.138 16.5503 292.611 16.1142 291.085 15.6781C290.213 15.4601 289.559 15.242 288.905 15.024C285.198 13.7158 283.018 13.0616 283.018 13.0616C282.581 12.6256 282.145 11.9714 282.363 11.0993ZM375.685 68.8802C375.685 68.6622 375.903 68.4441 376.121 68.2261C376.339 68.008 376.775 67.79 377.211 67.79C377.647 67.79 377.865 68.008 378.302 68.2261C378.738 68.8802 378.738 69.7524 378.302 70.1884C378.084 70.4065 377.647 70.6245 377.211 70.6245C376.775 70.6245 376.557 70.4065 376.121 70.1884C375.467 69.7524 375.467 69.3163 375.685 68.8802ZM395.091 91.9926C395.091 91.5565 395.309 91.3384 395.745 91.1204C396.399 90.6843 397.271 90.9023 397.707 91.5565C398.143 91.9925 398.361 92.6467 398.579 93.0828C398.797 93.3008 398.797 93.5188 399.015 93.7369L399.888 95.0451C400.324 95.6993 400.106 96.5714 399.452 97.0075C398.797 97.4436 397.925 97.2255 397.489 96.5714L396.617 95.2632C396.399 95.0451 396.399 94.8271 396.181 94.609C395.963 94.173 395.527 93.7369 395.309 93.3008C395.091 92.6467 394.873 92.2106 395.091 91.9926Z" fill="url(#paint30_linear_314_930)"/>
<path d="M181.411 434.319C181.629 433.447 182.283 433.011 183.155 433.229C183.155 433.229 183.591 433.229 184.681 433.447C185.335 433.665 186.644 433.883 188.606 434.101C192.313 434.537 197.546 434.973 204.305 435.627C206.921 436.063 210.192 436.063 213.463 436.063C214.117 436.063 214.553 436.063 215.207 436.063C218.696 436.063 222.402 436.063 226.327 436.063C226.763 436.063 226.981 436.281 227.417 436.499C227.635 436.717 227.853 437.153 227.853 437.589C227.853 438.244 227.199 438.898 226.327 439.116H225.455C221.748 439.116 218.26 439.116 215.207 439.116C214.553 439.116 213.899 439.116 213.245 439.116C209.974 439.116 206.703 439.116 203.869 438.68L188.388 436.935C186.426 436.717 184.899 436.499 184.027 436.281L183.373 436.063C182.937 436.063 182.719 435.845 182.719 435.845C181.629 436.063 181.193 435.191 181.411 434.319ZM231.56 437.153C231.778 436.499 232.214 436.063 232.868 436.063C233.304 436.063 233.741 436.063 233.959 436.281C234.177 436.499 234.395 436.935 234.395 437.371C234.395 438.026 233.741 438.898 233.086 438.898C232.214 438.898 231.56 438.462 231.56 437.589C231.342 437.371 231.342 437.153 231.56 437.153ZM261.432 433.011C261.65 432.574 262.086 432.138 262.522 431.92C262.958 431.92 263.394 431.92 263.612 432.138C264.048 432.356 264.048 432.574 264.266 433.011C264.484 433.883 263.83 434.537 263.176 434.755C262.74 434.755 262.522 434.755 262.086 434.537C261.868 434.319 261.65 434.101 261.432 433.665C261.432 433.447 261.432 433.229 261.432 433.011ZM296.754 422.763C296.973 422.327 297.191 421.89 297.627 421.89C309.619 417.312 321.393 411.424 332.077 404.883C341.889 398.996 351.265 392.019 360.205 384.387C360.859 383.951 361.731 383.951 362.167 384.605C362.603 385.26 362.603 386.132 361.949 386.786C352.791 394.635 343.197 401.613 333.385 407.5C322.483 414.259 310.709 420.146 298.499 424.725C297.845 424.943 296.973 424.725 296.536 423.853C296.754 423.199 296.754 422.981 296.754 422.763ZM406.865 110.092C406.865 109.655 407.301 109.437 407.519 109.219C407.737 109.001 408.174 109.001 408.61 109.001C409.046 109.219 409.264 109.437 409.482 109.655C409.7 110.31 409.482 111.182 408.828 111.618C408.174 112.054 407.301 111.618 406.865 110.964C406.647 110.746 406.647 110.31 406.865 110.092ZM409.918 115.979C409.918 115.543 410.354 115.325 410.572 115.107C411.226 114.67 412.098 115.107 412.534 115.761C412.971 116.633 413.407 117.505 414.061 118.595C415.587 121.212 417.331 124.7 419.294 128.625C419.73 129.497 419.948 130.151 420.384 131.024C425.617 143.452 432.594 160.459 435.865 182.263C436.083 183.353 436.301 184.444 436.301 185.752C436.519 186.406 435.865 187.278 435.211 187.496C434.339 187.714 433.684 187.06 433.466 186.406C433.248 185.316 433.03 184.226 432.812 182.917C429.542 161.549 422.564 144.542 417.549 132.332L416.677 129.933C414.715 126.009 412.971 122.52 411.444 119.903C411.008 119.031 410.572 117.941 410.136 117.287C409.918 116.633 409.7 116.415 409.918 115.979ZM365.001 380.463C365.001 380.245 365.219 380.027 365.438 379.809C366.092 379.372 366.964 379.372 367.4 379.809C367.836 380.463 367.836 381.335 367.4 381.771C366.746 382.207 365.874 382.207 365.438 381.771C365.001 381.335 364.783 380.899 365.001 380.463ZM385.715 358.659C385.715 358.44 385.933 358.222 385.933 358.004C386.151 357.786 386.587 357.568 387.024 357.568C387.46 357.568 387.678 357.568 388.114 358.004C388.768 358.44 388.768 359.531 388.332 359.967C388.114 360.185 387.678 360.403 387.46 360.403C387.024 360.403 386.806 360.403 386.369 360.185C385.933 359.749 385.715 359.095 385.715 358.659ZM406.865 328.351C406.865 328.133 406.865 328.133 407.083 327.915C418.858 307.201 427.361 284.743 431.94 260.976C431.94 260.54 432.158 259.886 432.158 259.45C432.376 258.578 433.03 258.142 433.902 258.36C434.775 258.578 435.211 259.232 434.993 260.104C434.993 260.322 434.993 260.758 434.775 260.976C434.775 261.194 434.557 261.63 434.557 261.848C429.978 285.615 421.256 308.727 409.264 329.659C408.828 330.313 407.956 330.531 407.301 330.095C407.083 329.659 406.647 329.005 406.865 328.351ZM435.865 222.601C436.083 221.947 436.519 221.511 437.173 221.511C438.045 221.511 438.699 222.165 438.481 223.037C438.481 223.909 437.827 224.563 436.955 224.345C436.083 224.345 435.429 223.691 435.647 222.819C435.865 222.819 435.865 222.601 435.865 222.601ZM433.466 252.691C433.684 252.036 434.339 251.382 435.211 251.6C436.083 251.818 436.519 252.472 436.519 253.345C436.519 254.217 435.647 254.653 434.775 254.435C433.902 254.217 433.248 253.563 433.466 252.691Z" fill="url(#paint31_linear_314_930)"/>
<defs>
<linearGradient id="paint0_linear_314_930" x1="100.243" y1="211.573" x2="181.04" y2="215.915" gradientUnits="userSpaceOnUse">
<stop stop-color="#FF4DB5"/>
<stop offset="1" stop-color="#FFBF63"/>
</linearGradient>
<linearGradient id="paint1_linear_314_930" x1="270.364" y1="263.011" x2="399.415" y2="276.747" gradientUnits="userSpaceOnUse">
<stop stop-color="#FF4DB5"/>
<stop offset="1" stop-color="#FFBF63"/>
</linearGradient>
<linearGradient id="paint2_linear_314_930" x1="90.7622" y1="210.29" x2="175.325" y2="214.36" gradientUnits="userSpaceOnUse">
<stop stop-color="#FF4DB5"/>
<stop offset="1" stop-color="#FFBF63"/>
</linearGradient>
<linearGradient id="paint3_linear_314_930" x1="46.6097" y1="248.176" x2="81.2207" y2="249.454" gradientUnits="userSpaceOnUse">
<stop stop-color="#FF4DB5"/>
<stop offset="1" stop-color="#FFBF63"/>
</linearGradient>
<linearGradient id="paint4_linear_314_930" x1="218.465" y1="85.5245" x2="397.461" y2="128.99" gradientUnits="userSpaceOnUse">
<stop stop-color="#FF4DB5"/>
<stop offset="1" stop-color="#FFBF63"/>
</linearGradient>
<linearGradient id="paint5_linear_314_930" x1="251.042" y1="44.8816" x2="342.521" y2="74.0767" gradientUnits="userSpaceOnUse">
<stop stop-color="#FF4DB5"/>
<stop offset="1" stop-color="#FFBF63"/>
</linearGradient>
<linearGradient id="paint6_linear_314_930" x1="271.273" y1="262.912" x2="411.435" y2="277.84" gradientUnits="userSpaceOnUse">
<stop stop-color="#FF4DB5"/>
<stop offset="1" stop-color="#FFBF63"/>
</linearGradient>
<linearGradient id="paint7_linear_314_930" x1="331.343" y1="328.08" x2="408.31" y2="336.503" gradientUnits="userSpaceOnUse">
<stop stop-color="#FF4DB5"/>
<stop offset="1" stop-color="#FFBF63"/>
</linearGradient>
<linearGradient id="paint8_linear_314_930" x1="172.449" y1="382.78" x2="176.589" y2="383.643" gradientUnits="userSpaceOnUse">
<stop stop-color="#FF4DB5"/>
<stop offset="1" stop-color="#FFBF63"/>
</linearGradient>
<linearGradient id="paint9_linear_314_930" x1="152.551" y1="375.526" x2="163.403" y2="377.94" gradientUnits="userSpaceOnUse">
<stop stop-color="#FF4DB5"/>
<stop offset="1" stop-color="#FFBF63"/>
</linearGradient>
<linearGradient id="paint10_linear_314_930" x1="87.6579" y1="258.431" x2="143.132" y2="261.421" gradientUnits="userSpaceOnUse">
<stop stop-color="#FF4DB5"/>
<stop offset="1" stop-color="#FFBF63"/>
</linearGradient>
<linearGradient id="paint11_linear_314_930" x1="54.0521" y1="179.181" x2="55.881" y2="179.264" gradientUnits="userSpaceOnUse">
<stop stop-color="#FF4DB5"/>
<stop offset="1" stop-color="#FFBF63"/>
</linearGradient>
<linearGradient id="paint12_linear_314_930" x1="55.7275" y1="172.641" x2="58.0758" y2="172.778" gradientUnits="userSpaceOnUse">
<stop stop-color="#FF4DB5"/>
<stop offset="1" stop-color="#FFBF63"/>
</linearGradient>
<linearGradient id="paint13_linear_314_930" x1="62.0746" y1="152.461" x2="67.5583" y2="152.742" gradientUnits="userSpaceOnUse">
<stop stop-color="#FF4DB5"/>
<stop offset="1" stop-color="#FFBF63"/>
</linearGradient>
<linearGradient id="paint14_linear_314_930" x1="145.731" y1="85.3133" x2="251.614" y2="108.004" gradientUnits="userSpaceOnUse">
<stop stop-color="#FF4DB5"/>
<stop offset="1" stop-color="#FFBF63"/>
</linearGradient>
<linearGradient id="paint15_linear_314_930" x1="258.575" y1="54.2408" x2="262.666" y2="55.2075" gradientUnits="userSpaceOnUse">
<stop stop-color="#FF4DB5"/>
<stop offset="1" stop-color="#FFBF63"/>
</linearGradient>
<linearGradient id="paint16_linear_314_930" x1="265.334" y1="55.934" x2="269.474" y2="56.7972" gradientUnits="userSpaceOnUse">
<stop stop-color="#FF4DB5"/>
<stop offset="1" stop-color="#FFBF63"/>
</linearGradient>
<linearGradient id="paint17_linear_314_930" x1="283.159" y1="62.2035" x2="294.01" y2="64.6177" gradientUnits="userSpaceOnUse">
<stop stop-color="#FF4DB5"/>
<stop offset="1" stop-color="#FFBF63"/>
</linearGradient>
<linearGradient id="paint18_linear_314_930" x1="336.569" y1="140.384" x2="391.913" y2="143.363" gradientUnits="userSpaceOnUse">
<stop stop-color="#FF4DB5"/>
<stop offset="1" stop-color="#FFBF63"/>
</linearGradient>
<linearGradient id="paint19_linear_314_930" x1="384.257" y1="258.767" x2="386.216" y2="258.863" gradientUnits="userSpaceOnUse">
<stop stop-color="#FF4DB5"/>
<stop offset="1" stop-color="#FFBF63"/>
</linearGradient>
<linearGradient id="paint20_linear_314_930" x1="382.48" y1="265.526" x2="384.699" y2="265.649" gradientUnits="userSpaceOnUse">
<stop stop-color="#FF4DB5"/>
<stop offset="1" stop-color="#FFBF63"/>
</linearGradient>
<linearGradient id="paint21_linear_314_930" x1="375.398" y1="282.98" x2="380.881" y2="283.264" gradientUnits="userSpaceOnUse">
<stop stop-color="#FF4DB5"/>
<stop offset="1" stop-color="#FFBF63"/>
</linearGradient>
<linearGradient id="paint22_linear_314_930" x1="264.001" y1="333.964" x2="370.021" y2="356.658" gradientUnits="userSpaceOnUse">
<stop stop-color="#FF4DB5"/>
<stop offset="1" stop-color="#FFBF63"/>
</linearGradient>
<linearGradient id="paint23_linear_314_930" x1="179.209" y1="384.573" x2="183.3" y2="385.54" gradientUnits="userSpaceOnUse">
<stop stop-color="#FF4DB5"/>
<stop offset="1" stop-color="#FFBF63"/>
</linearGradient>
<linearGradient id="paint24_linear_314_930" x1="78.7976" y1="268.672" x2="170.802" y2="274.852" gradientUnits="userSpaceOnUse">
<stop stop-color="#FF4DB5"/>
<stop offset="1" stop-color="#FFBF63"/>
</linearGradient>
<linearGradient id="paint25_linear_314_930" x1="124.098" y1="74.4054" x2="267.536" y2="99.0194" gradientUnits="userSpaceOnUse">
<stop stop-color="#FF4DB5"/>
<stop offset="1" stop-color="#FFBF63"/>
</linearGradient>
<linearGradient id="paint26_linear_314_930" x1="335.868" y1="116.831" x2="427.872" y2="123.015" gradientUnits="userSpaceOnUse">
<stop stop-color="#FF4DB5"/>
<stop offset="1" stop-color="#FFBF63"/>
</linearGradient>
<linearGradient id="paint27_linear_314_930" x1="275.855" y1="331.476" x2="419.292" y2="356.09" gradientUnits="userSpaceOnUse">
<stop stop-color="#FF4DB5"/>
<stop offset="1" stop-color="#FFBF63"/>
</linearGradient>
<linearGradient id="paint28_linear_314_930" x1="88.1225" y1="376.265" x2="157.26" y2="386.291" gradientUnits="userSpaceOnUse">
<stop stop-color="#FF4DB5"/>
<stop offset="1" stop-color="#FFBF63"/>
</linearGradient>
<linearGradient id="paint29_linear_314_930" x1="108.562" y1="129.229" x2="262.213" y2="142.106" gradientUnits="userSpaceOnUse">
<stop stop-color="#FF4DB5"/>
<stop offset="1" stop-color="#FFBF63"/>
</linearGradient>
<linearGradient id="paint30_linear_314_930" x1="331.931" y1="43.993" x2="401.204" y2="54.0355" gradientUnits="userSpaceOnUse">
<stop stop-color="#FF4DB5"/>
<stop offset="1" stop-color="#FFBF63"/>
</linearGradient>
<linearGradient id="paint31_linear_314_930" x1="289.684" y1="237.746" x2="443.006" y2="250.574" gradientUnits="userSpaceOnUse">
<stop stop-color="#FF4DB5"/>
<stop offset="1" stop-color="#FFBF63"/>
</linearGradient>
</defs>
</svg>
