<svg width="250" height="250" viewBox="0 0 250 250" fill="none" xmlns="http://www.w3.org/2000/svg">
<g clip-path="url(#clip0_4_7162)">
<path d="M7.7749 168.479C25.4365 216.079 71.2544 250.001 125 250.001C178.746 250.001 224.563 216.079 242.225 168.479L125 157.61L7.7749 168.479Z" fill="#FFDA44"/>
<path d="M125 0.000976562C71.2544 0.000976562 25.4365 33.9229 7.7749 81.5229L125 92.3921L242.225 81.5225C224.563 33.9228 178.746 0.000976562 125 0.000976562Z" fill="black"/>
<path d="M7.7749 81.5229C2.75049 95.0645 0 109.711 0 125.001C0 140.291 2.75049 154.938 7.7749 168.479H242.226C247.25 154.938 250 140.291 250 125.001C250 109.711 247.25 95.0645 242.225 81.5229H7.7749Z" fill="#D80027"/>
</g>
<defs>
<clipPath id="clip0_4_7162">
<rect width="250" height="250" fill="white" transform="translate(0 0.000976562)"/>
</clipPath>
</defs>
</svg>
