<svg width="14" height="18" viewBox="0 0 14 18" fill="none" xmlns="http://www.w3.org/2000/svg">
<path d="M2.08065 0.987429C1.89043 0.905069 1.68272 0.871305 1.47621 0.889176C1.2697 0.907047 1.07088 0.975992 0.897641 1.08981C0.724401 1.20362 0.582184 1.35873 0.48379 1.54116C0.385397 1.7236 0.333917 1.92765 0.333984 2.13493V16.4999C0.333984 16.7209 0.421782 16.9329 0.578062 17.0892C0.734343 17.2455 0.946304 17.3333 1.16732 17.3333C1.38833 17.3333 1.60029 17.2455 1.75657 17.0892C1.91285 16.9329 2.00065 16.7209 2.00065 16.4999V12.8808L13.1165 8.0641C14.1207 7.62826 14.1207 6.20493 13.1165 5.76993L2.08065 0.987429Z" fill="url(#paint0_linear_374_2523)"/>
<defs>
<linearGradient id="paint0_linear_374_2523" x1="6.03563" y1="7.29953" x2="14.099" y2="8.01219" gradientUnits="userSpaceOnUse">
<stop stop-color="#FF4DB5"/>
<stop offset="1" stop-color="#FFBF63"/>
</linearGradient>
</defs>
</svg>
