<svg width="15" height="16" viewBox="0 0 15 16" fill="none" xmlns="http://www.w3.org/2000/svg">
<path d="M3.50009 1.99995C3.50062 1.46987 3.71157 0.961672 4.08659 0.587032C4.4616 0.212392 4.97001 0.00195286 5.50009 0.00195313H10.5001C11.0302 0.00195286 11.5386 0.212392 11.9136 0.587032C12.2886 0.961672 12.4996 1.46987 12.5001 1.99995H13.4961C13.8939 1.99995 14.2754 2.15799 14.5568 2.43929C14.8381 2.7206 14.9961 3.10213 14.9961 3.49995V5.00495C14.9961 5.73115 14.7324 6.43264 14.254 6.97895C13.7755 7.52527 13.115 7.87921 12.3951 7.97495C12.1913 8.89102 11.7065 9.72056 11.0084 10.3477C10.3103 10.9748 9.43368 11.3682 8.50109 11.473V12.968H10.5041C11.0345 12.968 11.5432 13.1787 11.9183 13.5537C12.2934 13.9288 12.5041 14.4375 12.5041 14.968V15.468C12.5041 15.6006 12.4514 15.7277 12.3576 15.8215C12.2639 15.9153 12.1367 15.968 12.0041 15.968H4.00409C3.87149 15.968 3.74431 15.9153 3.65054 15.8215C3.55677 15.7277 3.50409 15.6006 3.50409 15.468V14.968C3.50409 14.4375 3.71481 13.9288 4.08988 13.5537C4.46495 13.1787 4.97366 12.968 5.50409 12.968H7.50109V11.473C6.56787 11.3684 5.69069 10.9747 4.99228 10.3469C4.29388 9.71918 3.80921 8.88879 3.60609 7.97195C2.88478 7.8761 2.22273 7.52185 1.74276 6.97495C1.2628 6.42804 0.997498 5.7256 0.996094 4.99795V3.49995C0.996094 3.10213 1.15413 2.7206 1.43543 2.43929C1.71674 2.15799 2.09827 1.99995 2.49609 1.99995H3.50109H3.50009ZM12.5001 6.93695C12.9283 6.82617 13.3075 6.57631 13.5783 6.22662C13.849 5.87694 13.996 5.44722 13.9961 5.00495V3.49995C13.9961 3.36734 13.9434 3.24017 13.8496 3.1464C13.7559 3.05263 13.6287 2.99995 13.4961 2.99995H12.5011V6.93695H12.5001ZM3.50009 2.99995H2.49709C2.36449 2.99995 2.23731 3.05263 2.14354 3.1464C2.04977 3.24017 1.99709 3.36734 1.99709 3.49995V4.99795C1.99709 5.92795 2.63709 6.71095 3.50209 6.93395V2.99995H3.50009Z" fill="url(#paint0_linear_374_3505)"/>
<defs>
<linearGradient id="paint0_linear_374_3505" x1="6.89335" y1="6.2287" x2="15.2246" y2="7.01332" gradientUnits="userSpaceOnUse">
<stop stop-color="#FF4DB5"/>
<stop offset="1" stop-color="#FFBF63"/>
</linearGradient>
</defs>
</svg>
